{
    "patcher": {
        "fileversion": 1,
        "appversion": {
            "major": 9,
            "minor": 1,
            "revision": 1,
            "architecture": "x64",
            "modernui": 1
        },
        "classnamespace": "box",
        "rect": [ 59.0, 115.0, 1000.0, 746.0 ],
        "openinpresentation": 1,
        "boxes": [
            {
                "box": {
                    "id": "obj-26",
                    "maxclass": "newobj",
                    "numinlets": 1,
                    "numoutlets": 2,
                    "outlettype": [ "", "" ],
                    "patching_rect": [ 345.0, 47.0, 72.0, 22.0 ],
                    "text": "patcherargs"
                }
            },
            {
                "box": {
                    "hidden": 1,
                    "id": "obj-95",
                    "linecount": 2,
                    "maxclass": "message",
                    "numinlets": 2,
                    "numoutlets": 1,
                    "outlettype": [ "" ],
                    "patching_rect": [ 180.0, 375.0, 300.0, 35.0 ],
                    "text": ";\rmax launchbrowser https://www.gumroad.com/tmhglnd"
                }
            },
            {
                "box": {
                    "hidden": 1,
                    "id": "obj-66",
                    "linecount": 2,
                    "maxclass": "message",
                    "numinlets": 2,
                    "numoutlets": 1,
                    "outlettype": [ "" ],
                    "patching_rect": [ 180.0, 330.0, 317.0, 35.0 ],
                    "text": ";\rmax launchbrowser http://www.patreon.com/timohoogland"
                }
            },
            {
                "box": {
                    "align": 2,
                    "bgcolor": [ 1.0, 1.0, 1.0, 0.0 ],
                    "bgoncolor": [ 1.0, 1.0, 1.0, 0.470588235294118 ],
                    "fontface": 1,
                    "fontsize": 10.0,
                    "id": "obj-77",
                    "maxclass": "textbutton",
                    "numinlets": 1,
                    "numoutlets": 3,
                    "outlettype": [ "", "", "int" ],
                    "parameter_enable": 0,
                    "patching_rect": [ 28.0, 345.0, 120.0, 23.0 ],
                    "presentation": 1,
                    "presentation_rect": [ 555.0, 51.5, 105.0, 23.0 ],
                    "text": "support my work",
                    "textjustification": 2,
                    "textoncolor": [ 0.599997520446777, 0.60001540184021, 0.600005149841309, 1.0 ],
                    "textovercolor": [ 0.0, 0.0, 0.0, 1.0 ],
                    "usebgoncolor": 1,
                    "usetextovercolor": 1
                }
            },
            {
                "box": {
                    "hidden": 1,
                    "id": "obj-68",
                    "linecount": 2,
                    "maxclass": "message",
                    "numinlets": 2,
                    "numoutlets": 1,
                    "outlettype": [ "" ],
                    "patching_rect": [ 180.0, 420.0, 275.0, 35.0 ],
                    "text": ";\rmax launchbrowser http://www.timohoogland.com"
                }
            },
            {
                "box": {
                    "align": 2,
                    "bgcolor": [ 1.0, 1.0, 1.0, 0.0 ],
                    "bgoncolor": [ 1.0, 1.0, 1.0, 0.470588235294118 ],
                    "fontface": 1,
                    "fontsize": 10.0,
                    "id": "obj-69",
                    "maxclass": "textbutton",
                    "numinlets": 1,
                    "numoutlets": 3,
                    "outlettype": [ "", "", "int" ],
                    "parameter_enable": 0,
                    "patching_rect": [ 28.0, 405.0, 120.0, 23.0 ],
                    "presentation": 1,
                    "presentation_rect": [ 555.0, 76.5, 105.0, 23.0 ],
                    "text": "visit my website",
                    "textjustification": 2,
                    "textoncolor": [ 0.599997520446777, 0.60001540184021, 0.600005149841309, 1.0 ],
                    "textovercolor": [ 0.0, 0.0, 0.0, 1.0 ],
                    "usebgoncolor": 1,
                    "usetextovercolor": 1
                }
            },
            {
                "box": {
                    "align": 0,
                    "bgcolor": [ 1.0, 1.0, 1.0, 0.0 ],
                    "bgoncolor": [ 1.0, 1.0, 1.0, 0.470588235294118 ],
                    "fontface": 1,
                    "fontsize": 10.0,
                    "id": "obj-78",
                    "maxclass": "textbutton",
                    "numinlets": 1,
                    "numoutlets": 3,
                    "outlettype": [ "", "", "int" ],
                    "parameter_enable": 0,
                    "patching_rect": [ 28.0, 375.0, 120.0, 23.0 ],
                    "text": "visit my gumroad",
                    "textjustification": 0,
                    "textoncolor": [ 0.599997520446777, 0.60001540184021, 0.600005149841309, 1.0 ],
                    "textovercolor": [ 0.0, 0.0, 0.0, 1.0 ],
                    "usebgoncolor": 1,
                    "usetextovercolor": 1
                }
            },
            {
                "box": {
                    "fontface": 2,
                    "fontsize": 10.0,
                    "id": "obj-76",
                    "linecount": 3,
                    "maxclass": "comment",
                    "numinlets": 1,
                    "numoutlets": 0,
                    "patching_rect": [ 615.0, 29.0, 166.0, 40.0 ],
                    "presentation": 1,
                    "presentation_linecount": 3,
                    "presentation_rect": [ 435.0, 11.0, 225.0, 40.0 ],
                    "text": "written by Timo Hoogland (c) 2026 www.timohoogland.com\nGNU GPL v3 License",
                    "textjustification": 2
                }
            },
            {
                "box": {
                    "id": "obj-21",
                    "maxclass": "comment",
                    "numinlets": 1,
                    "numoutlets": 0,
                    "patching_rect": [ 528.0, 300.0, 266.0, 20.0 ],
                    "presentation": 1,
                    "presentation_rect": [ 0.0, 75.0, 374.0, 20.0 ],
                    "saved_attribute_attributes": {
                        "textcolor": {
                            "expression": "themecolor.theme_textcolor"
                        }
                    }
                }
            },
            {
                "box": {
                    "id": "obj-20",
                    "maxclass": "newobj",
                    "numinlets": 1,
                    "numoutlets": 1,
                    "outlettype": [ "" ],
                    "patching_rect": [ 528.0, 240.0, 72.0, 22.0 ],
                    "text": "prepend set"
                }
            },
            {
                "box": {
                    "fontface": 1,
                    "id": "obj-88",
                    "maxclass": "comment",
                    "numinlets": 1,
                    "numoutlets": 0,
                    "patching_rect": [ 421.0, 270.0, 374.0, 20.0 ],
                    "presentation": 1,
                    "presentation_rect": [ 0.0, 53.0, 374.0, 20.0 ],
                    "saved_attribute_attributes": {
                        "textcolor": {
                            "expression": "themecolor.theme_textcolor"
                        }
                    }
                }
            },
            {
                "box": {
                    "id": "obj-19",
                    "maxclass": "newobj",
                    "numinlets": 1,
                    "numoutlets": 1,
                    "outlettype": [ "" ],
                    "patching_rect": [ 345.0, 89.0, 73.0, 22.0 ],
                    "text": "prepend get"
                }
            },
            {
                "box": {
                    "id": "obj-16",
                    "maxclass": "newobj",
                    "numinlets": 1,
                    "numoutlets": 1,
                    "outlettype": [ "" ],
                    "patching_rect": [ 30.0, 90.0, 72.0, 22.0 ],
                    "text": "prepend set"
                }
            },
            {
                "box": {
                    "fontface": 0,
                    "fontname": "Arial",
                    "fontsize": 40.0,
                    "id": "obj-22",
                    "maxclass": "comment",
                    "numinlets": 1,
                    "numoutlets": 0,
                    "patching_rect": [ 30.0, 120.0, 305.0, 51.0 ],
                    "presentation": 1,
                    "presentation_rect": [ 0.0, 0.0, 374.0, 51.0 ],
                    "saved_attribute_attributes": {
                        "textcolor": {
                            "expression": "themecolor.theme_textcolor"
                        }
                    },
                    "text": "av.enable"
                }
            },
            {
                "box": {
                    "id": "obj-15",
                    "maxclass": "newobj",
                    "numinlets": 1,
                    "numoutlets": 1,
                    "outlettype": [ "" ],
                    "patching_rect": [ 421.0, 240.0, 72.0, 22.0 ],
                    "text": "prepend set"
                }
            },
            {
                "box": {
                    "id": "obj-12",
                    "maxclass": "newobj",
                    "numinlets": 1,
                    "numoutlets": 3,
                    "outlettype": [ "", "", "" ],
                    "patching_rect": [ 421.0, 210.0, 233.0, 22.0 ],
                    "saved_object_attributes": {
                        "legacy": 1
                    },
                    "text": "dict.unpack digest: description: @legacy 1"
                }
            },
            {
                "box": {
                    "id": "obj-10",
                    "maxclass": "newobj",
                    "numinlets": 2,
                    "numoutlets": 2,
                    "outlettype": [ "", "" ],
                    "patching_rect": [ 385.0, 180.0, 55.0, 22.0 ],
                    "text": "zl.slice 1"
                }
            },
            {
                "box": {
                    "data": {
                        "av.enable": {
                            "digest": "Enable/disable processing of a pix/slab shader",
                            "description": "Enable/disable the processing of a jit.gl.pix or jit.gl.slab object. Either process by outputtting through right outlet or bypass it by using the left outlet. A toggle enables or disables it."
                        }
                    },
                    "id": "obj-5",
                    "maxclass": "newobj",
                    "numinlets": 2,
                    "numoutlets": 5,
                    "outlettype": [ "dictionary", "", "", "", "" ],
                    "patching_rect": [ 345.0, 149.0, 179.0, 22.0 ],
                    "saved_object_attributes": {
                        "embed": 1,
                        "legacy": 0,
                        "parameter_enable": 0,
                        "parameter_mappable": 0
                    },
                    "text": "dict _av-toolbox-refs @embed 1"
                }
            }
        ],
        "lines": [
            {
                "patchline": {
                    "destination": [ "obj-12", 0 ],
                    "source": [ "obj-10", 1 ]
                }
            },
            {
                "patchline": {
                    "destination": [ "obj-15", 0 ],
                    "source": [ "obj-12", 0 ]
                }
            },
            {
                "patchline": {
                    "destination": [ "obj-20", 0 ],
                    "source": [ "obj-12", 1 ]
                }
            },
            {
                "patchline": {
                    "destination": [ "obj-88", 0 ],
                    "source": [ "obj-15", 0 ]
                }
            },
            {
                "patchline": {
                    "destination": [ "obj-22", 0 ],
                    "source": [ "obj-16", 0 ]
                }
            },
            {
                "patchline": {
                    "destination": [ "obj-5", 0 ],
                    "source": [ "obj-19", 0 ]
                }
            },
            {
                "patchline": {
                    "destination": [ "obj-21", 0 ],
                    "source": [ "obj-20", 0 ]
                }
            },
            {
                "patchline": {
                    "destination": [ "obj-16", 0 ],
                    "order": 1,
                    "source": [ "obj-26", 0 ]
                }
            },
            {
                "patchline": {
                    "destination": [ "obj-19", 0 ],
                    "order": 0,
                    "source": [ "obj-26", 0 ]
                }
            },
            {
                "patchline": {
                    "destination": [ "obj-10", 0 ],
                    "source": [ "obj-5", 1 ]
                }
            },
            {
                "patchline": {
                    "destination": [ "obj-68", 0 ],
                    "hidden": 1,
                    "source": [ "obj-69", 0 ]
                }
            },
            {
                "patchline": {
                    "destination": [ "obj-66", 0 ],
                    "hidden": 1,
                    "source": [ "obj-77", 0 ]
                }
            },
            {
                "patchline": {
                    "destination": [ "obj-95", 0 ],
                    "hidden": 1,
                    "source": [ "obj-78", 0 ]
                }
            }
        ],
        "autosave": 0,
        "toolbaradditions": [ "audiomute", "audiosolo", "packagemanager" ]
    }
}