{
    "patcher": {
        "fileversion": 1,
        "appversion": {
            "major": 9,
            "minor": 1,
            "revision": 1,
            "architecture": "x64",
            "modernui": 1
        },
        "classnamespace": "box",
        "rect": [ 782.0, 96.0, 680.0, 837.0 ],
        "boxes": [
            {
                "box": {
                    "id": "obj-8",
                    "maxclass": "newobj",
                    "numinlets": 1,
                    "numoutlets": 3,
                    "outlettype": [ "", "", "" ],
                    "patching_rect": [ 285.0, 307.0, 51.0, 22.0 ],
                    "text": "unjoin 2"
                }
            },
            {
                "box": {
                    "comment": "(int/float) release time in ms",
                    "id": "obj-3",
                    "index": 3,
                    "maxclass": "inlet",
                    "numinlets": 0,
                    "numoutlets": 1,
                    "outlettype": [ "" ],
                    "patching_rect": [ 233.5, 274.0, 30.0, 30.0 ]
                }
            },
            {
                "box": {
                    "id": "obj-2",
                    "maxclass": "newobj",
                    "numinlets": 1,
                    "numoutlets": 2,
                    "outlettype": [ "signal", "float" ],
                    "patching_rect": [ 278.5, 360.0, 77.0, 22.0 ],
                    "text": "mstosamps~"
                }
            },
            {
                "box": {
                    "id": "obj-31",
                    "linecount": 8,
                    "maxclass": "comment",
                    "numinlets": 1,
                    "numoutlets": 0,
                    "patching_rect": [ 240.0, 143.0, 165.0, 114.0 ],
                    "text": "scaled so white noise gives about ±1 at the output\n\npink noise gives about ±0.4\n\npure sine-waves in keyboard range (MIDI 36 - 96) give about ±0.2"
                }
            },
            {
                "box": {
                    "id": "obj-29",
                    "maxclass": "newobj",
                    "numinlets": 2,
                    "numoutlets": 1,
                    "outlettype": [ "float" ],
                    "patching_rect": [ 195.0, 145.0, 29.5, 22.0 ],
                    "text": "/ 2."
                }
            },
            {
                "box": {
                    "id": "obj-23",
                    "maxclass": "newobj",
                    "numinlets": 1,
                    "numoutlets": 1,
                    "outlettype": [ "bang" ],
                    "patching_rect": [ 167.0, 80.0, 58.0, 22.0 ],
                    "text": "loadbang"
                }
            },
            {
                "box": {
                    "id": "obj-10",
                    "maxclass": "newobj",
                    "numinlets": 1,
                    "numoutlets": 2,
                    "outlettype": [ "signal", "float" ],
                    "patching_rect": [ 186.5, 360.0, 77.0, 22.0 ],
                    "text": "mstosamps~"
                }
            },
            {
                "box": {
                    "id": "obj-22",
                    "maxclass": "newobj",
                    "numinlets": 3,
                    "numoutlets": 1,
                    "outlettype": [ "signal" ],
                    "patching_rect": [ 134.5, 405.0, 40.0, 22.0 ],
                    "text": "slide~"
                }
            },
            {
                "box": {
                    "id": "obj-21",
                    "maxclass": "newobj",
                    "numinlets": 3,
                    "numoutlets": 1,
                    "outlettype": [ "signal" ],
                    "patching_rect": [ 134.5, 225.0, 54.0, 22.0 ],
                    "text": "clip~ 0 1"
                }
            },
            {
                "box": {
                    "id": "obj-7",
                    "maxclass": "newobj",
                    "numinlets": 2,
                    "numoutlets": 1,
                    "outlettype": [ "signal" ],
                    "patching_rect": [ 134.5, 189.0, 29.5, 22.0 ],
                    "text": "/~"
                }
            },
            {
                "box": {
                    "id": "obj-4",
                    "maxclass": "newobj",
                    "numinlets": 1,
                    "numoutlets": 4,
                    "outlettype": [ "int", "float", "int", "int" ],
                    "patching_rect": [ 167.0, 110.0, 61.0, 22.0 ],
                    "text": "dspstate~"
                }
            },
            {
                "box": {
                    "id": "obj-6",
                    "maxclass": "newobj",
                    "numinlets": 1,
                    "numoutlets": 2,
                    "outlettype": [ "signal", "signal" ],
                    "patching_rect": [ 134.5, 145.0, 45.0, 22.0 ],
                    "text": "zerox~"
                }
            },
            {
                "box": {
                    "id": "obj-5",
                    "maxclass": "newobj",
                    "numinlets": 1,
                    "numoutlets": 6,
                    "outlettype": [ "signal", "bang", "int", "float", "", "" ],
                    "patching_rect": [ 45.0, 95.0, 71.5, 22.0 ],
                    "text": "typeroute~"
                }
            },
            {
                "box": {
                    "id": "obj-1",
                    "maxclass": "newobj",
                    "numinlets": 1,
                    "numoutlets": 2,
                    "outlettype": [ "", "" ],
                    "patching_rect": [ 285.0, 274.0, 99.0, 22.0 ],
                    "text": "patcherargs 2 10"
                }
            },
            {
                "box": {
                    "id": "obj-19",
                    "linecount": 2,
                    "maxclass": "comment",
                    "numinlets": 1,
                    "numoutlets": 0,
                    "patching_rect": [ 420.0, 78.5, 256.0, 33.0 ],
                    "saved_attribute_attributes": {
                        "textcolor": {
                            "expression": "themecolor.theme_textcolor"
                        }
                    },
                    "text": "written by Timo Hoogland, (c) 2025, www.timohoogland.com, GNU GPL v3 License"
                }
            },
            {
                "box": {
                    "id": "obj-13",
                    "linecount": 18,
                    "maxclass": "comment",
                    "numinlets": 1,
                    "numoutlets": 0,
                    "patching_rect": [ 420.0, 123.5, 279.0, 248.0 ],
                    "saved_attribute_attributes": {
                        "textcolor": {
                            "expression": "themecolor.theme_textcolor"
                        }
                    },
                    "text": "Analyse the \"noisiness\" of a signal as a value between 0 and 1, where 0 means the signal is not noisy, and 1 means the signal is very noisy. \n\nThe measurement is done per signalvector, with the zerox object, measuring zero-crossings. On the assumption that very noisy signals usually contain quite some zero-crossings (or alternatively they have very high pitches as a fundamental, which is usually less likely).\n\nIf the original signal contains quite a noise-floor it could be benificial for the measurement to add an av.ampgate~ first to remove unwanted readings from the noisefloor.\n\nArguments:\nsmoothing (default = 5ms)"
                }
            },
            {
                "box": {
                    "fontface": 3,
                    "fontsize": 24.0,
                    "id": "obj-11",
                    "maxclass": "comment",
                    "numinlets": 1,
                    "numoutlets": 0,
                    "patching_rect": [ 420.0, 43.5, 165.0, 33.0 ],
                    "saved_attribute_attributes": {
                        "textcolor": {
                            "expression": "themecolor.theme_textcolor"
                        }
                    },
                    "text": "av.noisiness~"
                }
            },
            {
                "box": {
                    "id": "obj-211",
                    "maxclass": "newobj",
                    "numinlets": 2,
                    "numoutlets": 1,
                    "outlettype": [ "float" ],
                    "patching_rect": [ 55.5, 450.0, 64.0, 22.0 ],
                    "text": "snapshot~"
                }
            },
            {
                "box": {
                    "comment": "(signal/bang) signal to analyze, bang to output",
                    "id": "obj-228",
                    "index": 1,
                    "maxclass": "inlet",
                    "numinlets": 0,
                    "numoutlets": 1,
                    "outlettype": [ "signal" ],
                    "patching_rect": [ 45.0, 45.0, 30.0, 30.0 ]
                }
            },
            {
                "box": {
                    "comment": "(int/float) attack time in ms",
                    "id": "obj-229",
                    "index": 2,
                    "maxclass": "inlet",
                    "numinlets": 0,
                    "numoutlets": 1,
                    "outlettype": [ "" ],
                    "patching_rect": [ 186.5, 274.0, 30.0, 30.0 ]
                }
            },
            {
                "box": {
                    "comment": "(signal) measured noisiness",
                    "id": "obj-231",
                    "index": 2,
                    "maxclass": "outlet",
                    "numinlets": 1,
                    "numoutlets": 0,
                    "patching_rect": [ 134.5, 497.0, 30.0, 30.0 ]
                }
            },
            {
                "box": {
                    "comment": "(float) measured noisiness",
                    "id": "obj-232",
                    "index": 1,
                    "maxclass": "outlet",
                    "numinlets": 1,
                    "numoutlets": 0,
                    "patching_rect": [ 55.5, 497.0, 30.0, 30.0 ]
                }
            }
        ],
        "lines": [
            {
                "patchline": {
                    "destination": [ "obj-8", 0 ],
                    "source": [ "obj-1", 0 ]
                }
            },
            {
                "patchline": {
                    "destination": [ "obj-22", 1 ],
                    "source": [ "obj-10", 1 ]
                }
            },
            {
                "patchline": {
                    "destination": [ "obj-22", 2 ],
                    "source": [ "obj-2", 1 ]
                }
            },
            {
                "patchline": {
                    "destination": [ "obj-22", 0 ],
                    "source": [ "obj-21", 0 ]
                }
            },
            {
                "patchline": {
                    "destination": [ "obj-232", 0 ],
                    "source": [ "obj-211", 0 ]
                }
            },
            {
                "patchline": {
                    "destination": [ "obj-211", 0 ],
                    "order": 1,
                    "source": [ "obj-22", 0 ]
                }
            },
            {
                "patchline": {
                    "destination": [ "obj-231", 0 ],
                    "order": 0,
                    "source": [ "obj-22", 0 ]
                }
            },
            {
                "patchline": {
                    "destination": [ "obj-5", 0 ],
                    "source": [ "obj-228", 0 ]
                }
            },
            {
                "patchline": {
                    "destination": [ "obj-10", 0 ],
                    "source": [ "obj-229", 0 ]
                }
            },
            {
                "patchline": {
                    "destination": [ "obj-4", 0 ],
                    "source": [ "obj-23", 0 ]
                }
            },
            {
                "patchline": {
                    "destination": [ "obj-7", 1 ],
                    "source": [ "obj-29", 0 ]
                }
            },
            {
                "patchline": {
                    "destination": [ "obj-2", 0 ],
                    "source": [ "obj-3", 0 ]
                }
            },
            {
                "patchline": {
                    "destination": [ "obj-29", 0 ],
                    "source": [ "obj-4", 2 ]
                }
            },
            {
                "patchline": {
                    "destination": [ "obj-211", 0 ],
                    "source": [ "obj-5", 1 ]
                }
            },
            {
                "patchline": {
                    "destination": [ "obj-6", 0 ],
                    "source": [ "obj-5", 0 ]
                }
            },
            {
                "patchline": {
                    "destination": [ "obj-7", 0 ],
                    "source": [ "obj-6", 0 ]
                }
            },
            {
                "patchline": {
                    "destination": [ "obj-21", 0 ],
                    "source": [ "obj-7", 0 ]
                }
            },
            {
                "patchline": {
                    "destination": [ "obj-10", 0 ],
                    "source": [ "obj-8", 0 ]
                }
            },
            {
                "patchline": {
                    "destination": [ "obj-2", 0 ],
                    "source": [ "obj-8", 1 ]
                }
            }
        ],
        "toolbaradditions": [ "audiomute", "audiosolo", "packagemanager" ]
    }
}