{
    "patcher": {
        "fileversion": 1,
        "appversion": {
            "major": 9,
            "minor": 1,
            "revision": 1,
            "architecture": "x64",
            "modernui": 1
        },
        "classnamespace": "box",
        "rect": [ 178.0, 96.0, 680.0, 837.0 ],
        "boxes": [
            {
                "box": {
                    "id": "obj-8",
                    "linecount": 2,
                    "maxclass": "comment",
                    "numinlets": 1,
                    "numoutlets": 0,
                    "patching_rect": [ 390.0, 264.5, 200.0, 33.0 ],
                    "text": "Also look at jit.fx.bitcrush in max9, which includes dithering"
                }
            },
            {
                "box": {
                    "id": "obj-4",
                    "maxclass": "newobj",
                    "numinlets": 2,
                    "numoutlets": 2,
                    "outlettype": [ "", "" ],
                    "patching_rect": [ 64.0, 105.0, 54.0, 22.0 ],
                    "text": "route list"
                }
            },
            {
                "box": {
                    "id": "obj-2",
                    "maxclass": "newobj",
                    "numinlets": 2,
                    "numoutlets": 1,
                    "outlettype": [ "int" ],
                    "patching_rect": [ 280.0, 375.0, 29.5, 22.0 ],
                    "text": "!- 1"
                }
            },
            {
                "box": {
                    "id": "obj-1",
                    "maxclass": "newobj",
                    "numinlets": 2,
                    "numoutlets": 2,
                    "outlettype": [ "jit_gl_texture", "jit_gl_texture" ],
                    "patching_rect": [ 58.0, 430.0, 60.0, 22.0 ],
                    "text": "av.enable"
                }
            },
            {
                "box": {
                    "id": "obj-29",
                    "maxclass": "newobj",
                    "numinlets": 1,
                    "numoutlets": 1,
                    "outlettype": [ "" ],
                    "patching_rect": [ 155.0, 270.0, 19.0, 22.0 ],
                    "text": "t l"
                }
            },
            {
                "box": {
                    "id": "obj-26",
                    "maxclass": "newobj",
                    "numinlets": 4,
                    "numoutlets": 4,
                    "outlettype": [ "", "", "", "" ],
                    "patching_rect": [ 213.0, 345.0, 119.0, 22.0 ],
                    "text": "route int float bypass"
                }
            },
            {
                "box": {
                    "id": "obj-27",
                    "maxclass": "newobj",
                    "numinlets": 2,
                    "numoutlets": 2,
                    "outlettype": [ "", "" ],
                    "patching_rect": [ 99.0, 300.0, 133.0, 22.0 ],
                    "text": "routepass jit_gl_texture"
                }
            },
            {
                "box": {
                    "id": "obj-91",
                    "maxclass": "newobj",
                    "numinlets": 1,
                    "numoutlets": 2,
                    "outlettype": [ "jit_gl_texture", "" ],
                    "patcher": {
                        "fileversion": 1,
                        "appversion": {
                            "major": 9,
                            "minor": 1,
                            "revision": 1,
                            "architecture": "x64",
                            "modernui": 1
                        },
                        "classnamespace": "jit.gen",
                        "rect": [ 59.0, 115.0, 640.0, 561.0 ],
                        "boxes": [
                            {
                                "box": {
                                    "id": "obj-7",
                                    "maxclass": "newobj",
                                    "numinlets": 1,
                                    "numoutlets": 1,
                                    "outlettype": [ "" ],
                                    "patching_rect": [ 51.0, 270.0, 36.0, 22.0 ],
                                    "text": "+ 0.5"
                                }
                            },
                            {
                                "box": {
                                    "id": "obj-10",
                                    "linecount": 8,
                                    "maxclass": "comment",
                                    "numinlets": 1,
                                    "numoutlets": 0,
                                    "patching_rect": [ 330.0, 150.0, 180.0, 114.0 ],
                                    "text": "downsample the resolution of an image, downsample the bitdepth of the colors\n\nby Timo Hoogland (c) 2019\nwww.timohoogland.com\n\nMIT License"
                                }
                            },
                            {
                                "box": {
                                    "id": "obj-41",
                                    "maxclass": "newobj",
                                    "numinlets": 1,
                                    "numoutlets": 1,
                                    "outlettype": [ "" ],
                                    "patching_rect": [ 51.0, 300.0, 34.0, 22.0 ],
                                    "text": "floor"
                                }
                            },
                            {
                                "box": {
                                    "id": "obj-37",
                                    "maxclass": "newobj",
                                    "numinlets": 0,
                                    "numoutlets": 1,
                                    "outlettype": [ "" ],
                                    "patching_rect": [ 330.0, 90.0, 177.0, 22.0 ],
                                    "text": "param color_depth 256 @min 1"
                                }
                            },
                            {
                                "box": {
                                    "id": "obj-36",
                                    "maxclass": "newobj",
                                    "numinlets": 1,
                                    "numoutlets": 1,
                                    "outlettype": [ "" ],
                                    "patching_rect": [ 51.0, 330.0, 78.0, 22.0 ],
                                    "text": "/ color_depth"
                                }
                            },
                            {
                                "box": {
                                    "id": "obj-35",
                                    "maxclass": "newobj",
                                    "numinlets": 1,
                                    "numoutlets": 1,
                                    "outlettype": [ "" ],
                                    "patching_rect": [ 51.0, 240.0, 79.0, 22.0 ],
                                    "text": "* color_depth"
                                }
                            },
                            {
                                "box": {
                                    "id": "obj-29",
                                    "maxclass": "newobj",
                                    "numinlets": 1,
                                    "numoutlets": 1,
                                    "outlettype": [ "" ],
                                    "patching_rect": [ 195.0, 105.0, 34.0, 22.0 ],
                                    "text": "floor"
                                }
                            },
                            {
                                "box": {
                                    "id": "obj-26",
                                    "maxclass": "newobj",
                                    "numinlets": 0,
                                    "numoutlets": 1,
                                    "outlettype": [ "" ],
                                    "patching_rect": [ 330.0, 45.0, 223.0, 22.0 ],
                                    "text": "param down_sample 1 @min 0 @max 1"
                                }
                            },
                            {
                                "box": {
                                    "id": "obj-25",
                                    "maxclass": "newobj",
                                    "numinlets": 1,
                                    "numoutlets": 1,
                                    "outlettype": [ "" ],
                                    "patching_rect": [ 195.0, 135.0, 89.0, 22.0 ],
                                    "text": "/ down_sample"
                                }
                            },
                            {
                                "box": {
                                    "id": "obj-23",
                                    "maxclass": "newobj",
                                    "numinlets": 1,
                                    "numoutlets": 1,
                                    "outlettype": [ "" ],
                                    "patching_rect": [ 195.0, 75.0, 91.0, 22.0 ],
                                    "text": "* down_sample"
                                }
                            },
                            {
                                "box": {
                                    "id": "obj-22",
                                    "maxclass": "newobj",
                                    "numinlets": 1,
                                    "numoutlets": 1,
                                    "outlettype": [ "" ],
                                    "patching_rect": [ 195.0, 165.0, 35.0, 22.0 ],
                                    "text": "/ dim"
                                }
                            },
                            {
                                "box": {
                                    "id": "obj-17",
                                    "maxclass": "newobj",
                                    "numinlets": 0,
                                    "numoutlets": 1,
                                    "outlettype": [ "" ],
                                    "patching_rect": [ 195.0, 45.0, 29.0, 22.0 ],
                                    "text": "cell"
                                }
                            },
                            {
                                "box": {
                                    "id": "obj-5",
                                    "maxclass": "newobj",
                                    "numinlets": 2,
                                    "numoutlets": 1,
                                    "outlettype": [ "" ],
                                    "patching_rect": [ 51.0, 196.0, 163.0, 22.0 ],
                                    "text": "nearest @boundmode clamp"
                                }
                            },
                            {
                                "box": {
                                    "id": "obj-1",
                                    "maxclass": "newobj",
                                    "numinlets": 0,
                                    "numoutlets": 1,
                                    "outlettype": [ "" ],
                                    "patching_rect": [ 51.0, 135.0, 30.0, 22.0 ],
                                    "text": "in 1"
                                }
                            },
                            {
                                "box": {
                                    "id": "obj-4",
                                    "maxclass": "newobj",
                                    "numinlets": 1,
                                    "numoutlets": 0,
                                    "patching_rect": [ 51.0, 375.0, 37.0, 22.0 ],
                                    "text": "out 1"
                                }
                            }
                        ],
                        "lines": [
                            {
                                "patchline": {
                                    "destination": [ "obj-5", 0 ],
                                    "source": [ "obj-1", 0 ]
                                }
                            },
                            {
                                "patchline": {
                                    "destination": [ "obj-23", 0 ],
                                    "source": [ "obj-17", 0 ]
                                }
                            },
                            {
                                "patchline": {
                                    "destination": [ "obj-5", 1 ],
                                    "source": [ "obj-22", 0 ]
                                }
                            },
                            {
                                "patchline": {
                                    "destination": [ "obj-29", 0 ],
                                    "source": [ "obj-23", 0 ]
                                }
                            },
                            {
                                "patchline": {
                                    "destination": [ "obj-22", 0 ],
                                    "source": [ "obj-25", 0 ]
                                }
                            },
                            {
                                "patchline": {
                                    "destination": [ "obj-25", 0 ],
                                    "source": [ "obj-29", 0 ]
                                }
                            },
                            {
                                "patchline": {
                                    "destination": [ "obj-7", 0 ],
                                    "source": [ "obj-35", 0 ]
                                }
                            },
                            {
                                "patchline": {
                                    "destination": [ "obj-4", 0 ],
                                    "source": [ "obj-36", 0 ]
                                }
                            },
                            {
                                "patchline": {
                                    "destination": [ "obj-36", 0 ],
                                    "source": [ "obj-41", 0 ]
                                }
                            },
                            {
                                "patchline": {
                                    "destination": [ "obj-35", 0 ],
                                    "source": [ "obj-5", 0 ]
                                }
                            },
                            {
                                "patchline": {
                                    "destination": [ "obj-41", 0 ],
                                    "source": [ "obj-7", 0 ]
                                }
                            }
                        ]
                    },
                    "patching_rect": [ 155.0, 480.0, 130.0, 22.0 ],
                    "text": "jit.gl.pix @title degrade"
                }
            },
            {
                "box": {
                    "comment": "(texture) processed output",
                    "id": "obj-28",
                    "index": 1,
                    "maxclass": "outlet",
                    "numinlets": 1,
                    "numoutlets": 0,
                    "patching_rect": [ 58.0, 540.0, 30.0, 30.0 ]
                }
            },
            {
                "box": {
                    "id": "obj-13",
                    "maxclass": "newobj",
                    "numinlets": 2,
                    "numoutlets": 1,
                    "outlettype": [ "float" ],
                    "patching_rect": [ 155.0, 180.0, 44.0, 22.0 ],
                    "text": "pow 2."
                }
            },
            {
                "box": {
                    "id": "obj-10",
                    "maxclass": "message",
                    "numinlets": 2,
                    "numoutlets": 1,
                    "outlettype": [ "" ],
                    "patching_rect": [ 200.0, 240.0, 88.0, 22.0 ],
                    "text": "color_depth $1"
                }
            },
            {
                "box": {
                    "id": "obj-6",
                    "maxclass": "newobj",
                    "numinlets": 1,
                    "numoutlets": 3,
                    "outlettype": [ "", "", "" ],
                    "patching_rect": [ 255.0, 150.0, 51.0, 22.0 ],
                    "text": "unjoin 2"
                }
            },
            {
                "box": {
                    "id": "obj-7",
                    "maxclass": "message",
                    "numinlets": 2,
                    "numoutlets": 1,
                    "outlettype": [ "" ],
                    "patching_rect": [ 155.0, 211.0, 99.0, 22.0 ],
                    "text": "down_sample $1"
                }
            },
            {
                "box": {
                    "id": "obj-3",
                    "maxclass": "newobj",
                    "numinlets": 1,
                    "numoutlets": 2,
                    "outlettype": [ "", "" ],
                    "patching_rect": [ 255.0, 68.0, 109.0, 22.0 ],
                    "text": "patcherargs 0.25 4"
                }
            },
            {
                "box": {
                    "id": "obj-14",
                    "linecount": 14,
                    "maxclass": "comment",
                    "numinlets": 1,
                    "numoutlets": 0,
                    "patching_rect": [ 390.0, 60.0, 210.0, 194.0 ],
                    "text": "arguments:\n<float> downsampling factor/pixelate\n0 - 1 (1 = no downsampling)\n\n<color_depth>\n0 - inf (256 = no downsampling of color when type = char)\n\nA pixelate and color downsample algorithm in jit.gl.pix.\n\nTimo Hoogland (c) 2019\nwww.timohoogland.com\nMIT License"
                }
            },
            {
                "box": {
                    "comment": "(float) pixelate amount (0-1)",
                    "cool": 1,
                    "id": "obj-19",
                    "index": 2,
                    "maxclass": "inlet",
                    "numinlets": 0,
                    "numoutlets": 1,
                    "outlettype": [ "" ],
                    "patching_rect": [ 154.75, 60.0, 30.0, 30.0 ]
                }
            },
            {
                "box": {
                    "comment": "(int) color depth (1-256)",
                    "cool": 1,
                    "id": "obj-22",
                    "index": 3,
                    "maxclass": "inlet",
                    "numinlets": 0,
                    "numoutlets": 1,
                    "outlettype": [ "" ],
                    "patching_rect": [ 199.75, 60.0, 30.0, 30.0 ]
                }
            },
            {
                "box": {
                    "comment": "(texture) jit_gl_texture, (bool) enable, (list) params",
                    "id": "obj-24",
                    "index": 1,
                    "maxclass": "inlet",
                    "numinlets": 0,
                    "numoutlets": 1,
                    "outlettype": [ "jit_gl_texture" ],
                    "patching_rect": [ 64.0, 60.0, 30.0, 30.0 ]
                }
            }
        ],
        "lines": [
            {
                "patchline": {
                    "destination": [ "obj-28", 0 ],
                    "source": [ "obj-1", 0 ]
                }
            },
            {
                "patchline": {
                    "destination": [ "obj-91", 0 ],
                    "source": [ "obj-1", 1 ]
                }
            },
            {
                "patchline": {
                    "destination": [ "obj-29", 0 ],
                    "source": [ "obj-10", 0 ]
                }
            },
            {
                "patchline": {
                    "destination": [ "obj-7", 0 ],
                    "source": [ "obj-13", 0 ]
                }
            },
            {
                "patchline": {
                    "destination": [ "obj-13", 0 ],
                    "source": [ "obj-19", 0 ]
                }
            },
            {
                "patchline": {
                    "destination": [ "obj-1", 0 ],
                    "source": [ "obj-2", 0 ]
                }
            },
            {
                "patchline": {
                    "destination": [ "obj-10", 0 ],
                    "source": [ "obj-22", 0 ]
                }
            },
            {
                "patchline": {
                    "destination": [ "obj-4", 0 ],
                    "source": [ "obj-24", 0 ]
                }
            },
            {
                "patchline": {
                    "destination": [ "obj-1", 0 ],
                    "source": [ "obj-26", 1 ]
                }
            },
            {
                "patchline": {
                    "destination": [ "obj-1", 0 ],
                    "source": [ "obj-26", 0 ]
                }
            },
            {
                "patchline": {
                    "destination": [ "obj-2", 0 ],
                    "source": [ "obj-26", 2 ]
                }
            },
            {
                "patchline": {
                    "destination": [ "obj-1", 1 ],
                    "source": [ "obj-27", 0 ]
                }
            },
            {
                "patchline": {
                    "destination": [ "obj-26", 0 ],
                    "source": [ "obj-27", 1 ]
                }
            },
            {
                "patchline": {
                    "destination": [ "obj-91", 0 ],
                    "source": [ "obj-29", 0 ]
                }
            },
            {
                "patchline": {
                    "destination": [ "obj-26", 0 ],
                    "midpoints": [ 354.5, 333.03125, 222.5, 333.03125 ],
                    "source": [ "obj-3", 1 ]
                }
            },
            {
                "patchline": {
                    "destination": [ "obj-6", 0 ],
                    "source": [ "obj-3", 0 ]
                }
            },
            {
                "patchline": {
                    "destination": [ "obj-27", 0 ],
                    "source": [ "obj-4", 1 ]
                }
            },
            {
                "patchline": {
                    "destination": [ "obj-6", 0 ],
                    "source": [ "obj-4", 0 ]
                }
            },
            {
                "patchline": {
                    "destination": [ "obj-10", 0 ],
                    "source": [ "obj-6", 1 ]
                }
            },
            {
                "patchline": {
                    "destination": [ "obj-13", 0 ],
                    "source": [ "obj-6", 0 ]
                }
            },
            {
                "patchline": {
                    "destination": [ "obj-29", 0 ],
                    "source": [ "obj-7", 0 ]
                }
            },
            {
                "patchline": {
                    "destination": [ "obj-28", 0 ],
                    "source": [ "obj-91", 0 ]
                }
            }
        ],
        "styles": [
            {
                "name": "AudioStatus_Menu",
                "default": {
                    "bgfillcolor": {
                        "angle": 270.0,
                        "autogradient": 0,
                        "color": [ 0.294118, 0.313726, 0.337255, 1 ],
                        "color1": [ 0.454902, 0.462745, 0.482353, 0.0 ],
                        "color2": [ 0.290196, 0.309804, 0.301961, 1.0 ],
                        "proportion": 0.39,
                        "type": "color"
                    }
                },
                "parentstyle": "",
                "multi": 0
            },
            {
                "name": "Audiomix",
                "default": {
                    "bgfillcolor": {
                        "angle": 270.0,
                        "color": [ 0.290196, 0.309804, 0.301961, 1.0 ],
                        "color1": [ 0.376471, 0.384314, 0.4, 1.0 ],
                        "color2": [ 0.290196, 0.309804, 0.301961, 1.0 ],
                        "proportion": 0.39,
                        "type": "gradient"
                    }
                },
                "parentstyle": "",
                "multi": 0
            },
            {
                "name": "numberB-1",
                "default": {
                    "accentcolor": [ 0.011765, 0.396078, 0.752941, 1.0 ]
                },
                "parentstyle": "",
                "multi": 0
            },
            {
                "name": "numberG-1",
                "default": {
                    "accentcolor": [ 0.0, 0.533333, 0.168627, 1.0 ]
                },
                "parentstyle": "",
                "multi": 0
            },
            {
                "name": "numberGold-1",
                "default": {
                    "accentcolor": [ 0.764706, 0.592157, 0.101961, 1.0 ]
                },
                "parentstyle": "",
                "multi": 0
            },
            {
                "name": "numberR-1",
                "default": {
                    "accentcolor": [ 0.784314, 0.145098, 0.023529, 1.0 ]
                },
                "parentstyle": "",
                "multi": 0
            }
        ],
        "toolbaradditions": [ "audiomute", "audiosolo", "packagemanager" ]
    }
}