{
    "patcher": {
        "fileversion": 1,
        "appversion": {
            "major": 9,
            "minor": 1,
            "revision": 1,
            "architecture": "x64",
            "modernui": 1
        },
        "classnamespace": "box",
        "rect": [ 782.0, 96.0, 680.0, 837.0 ],
        "boxes": [
            {
                "box": {
                    "id": "obj-5",
                    "maxclass": "message",
                    "numinlets": 2,
                    "numoutlets": 1,
                    "outlettype": [ "" ],
                    "patching_rect": [ 207.0, 150.0, 48.0, 22.0 ],
                    "text": "divY $1"
                }
            },
            {
                "box": {
                    "comment": "(int) grid height y",
                    "cool": 1,
                    "id": "obj-4",
                    "index": 3,
                    "maxclass": "inlet",
                    "numinlets": 0,
                    "numoutlets": 1,
                    "outlettype": [ "" ],
                    "patching_rect": [ 207.0, 30.0, 30.0, 30.0 ]
                }
            },
            {
                "box": {
                    "id": "obj-3",
                    "maxclass": "newobj",
                    "numinlets": 2,
                    "numoutlets": 1,
                    "outlettype": [ "int" ],
                    "patching_rect": [ 266.0, 285.0, 29.5, 22.0 ],
                    "text": "!- 1"
                }
            },
            {
                "box": {
                    "id": "obj-1",
                    "maxclass": "newobj",
                    "numinlets": 2,
                    "numoutlets": 2,
                    "outlettype": [ "jit_gl_texture", "jit_gl_texture" ],
                    "patching_rect": [ 52.0, 330.0, 60.0, 22.0 ],
                    "text": "av.enable"
                }
            },
            {
                "box": {
                    "id": "obj-11",
                    "maxclass": "newobj",
                    "numinlets": 1,
                    "numoutlets": 1,
                    "outlettype": [ "" ],
                    "patching_rect": [ 145.0, 195.0, 19.0, 22.0 ],
                    "text": "t l"
                }
            },
            {
                "box": {
                    "comment": "(float) line width",
                    "cool": 1,
                    "id": "obj-10",
                    "index": 4,
                    "maxclass": "inlet",
                    "numinlets": 0,
                    "numoutlets": 1,
                    "outlettype": [ "" ],
                    "patching_rect": [ 266.0, 30.0, 30.0, 30.0 ]
                }
            },
            {
                "box": {
                    "id": "obj-8",
                    "maxclass": "message",
                    "numinlets": 2,
                    "numoutlets": 1,
                    "outlettype": [ "" ],
                    "patching_rect": [ 145.0, 150.0, 49.0, 22.0 ],
                    "text": "divX $1"
                }
            },
            {
                "box": {
                    "id": "obj-2",
                    "maxclass": "message",
                    "numinlets": 2,
                    "numoutlets": 1,
                    "outlettype": [ "" ],
                    "patching_rect": [ 266.0, 150.0, 53.0, 22.0 ],
                    "text": "width $1"
                }
            },
            {
                "box": {
                    "id": "obj-32",
                    "maxclass": "newobj",
                    "numinlets": 1,
                    "numoutlets": 4,
                    "outlettype": [ "", "", "", "" ],
                    "patching_rect": [ 315.0, 75.0, 51.0, 22.0 ],
                    "text": "unjoin 3"
                }
            },
            {
                "box": {
                    "id": "obj-19",
                    "linecount": 11,
                    "maxclass": "comment",
                    "numinlets": 1,
                    "numoutlets": 0,
                    "patching_rect": [ 390.0, 75.0, 210.0, 154.0 ],
                    "text": "arguments:\n<int> grid division x\n<int> grid division y\n<float> line_width\n\nGenerate a basic line grid based on the incoming texture dimensions\n\nTimo Hoogland (c) 2019\nwww.timohoogland.com\nMIT License"
                }
            },
            {
                "box": {
                    "id": "obj-26",
                    "maxclass": "newobj",
                    "numinlets": 5,
                    "numoutlets": 5,
                    "outlettype": [ "", "", "", "", "" ],
                    "patching_rect": [ 207.0, 255.0, 137.0, 22.0 ],
                    "text": "route int float bypass list"
                }
            },
            {
                "box": {
                    "id": "obj-27",
                    "maxclass": "newobj",
                    "numinlets": 2,
                    "numoutlets": 2,
                    "outlettype": [ "", "" ],
                    "patching_rect": [ 93.0, 224.0, 133.0, 22.0 ],
                    "text": "routepass jit_gl_texture"
                }
            },
            {
                "box": {
                    "id": "obj-20",
                    "maxclass": "newobj",
                    "numinlets": 1,
                    "numoutlets": 2,
                    "outlettype": [ "jit_gl_texture", "" ],
                    "patcher": {
                        "fileversion": 1,
                        "appversion": {
                            "major": 9,
                            "minor": 1,
                            "revision": 1,
                            "architecture": "x64",
                            "modernui": 1
                        },
                        "classnamespace": "jit.gen",
                        "rect": [ 862.0, 338.0, 600.0, 450.0 ],
                        "boxes": [
                            {
                                "box": {
                                    "id": "obj-10",
                                    "maxclass": "newobj",
                                    "numinlets": 1,
                                    "numoutlets": 1,
                                    "outlettype": [ "" ],
                                    "patching_rect": [ 45.0, 330.0, 47.0, 22.0 ],
                                    "text": "clip 0 1"
                                }
                            },
                            {
                                "box": {
                                    "id": "obj-3",
                                    "maxclass": "newobj",
                                    "numinlets": 0,
                                    "numoutlets": 1,
                                    "outlettype": [ "" ],
                                    "patching_rect": [ 180.0, 105.0, 79.0, 22.0 ],
                                    "text": "param divY 9"
                                }
                            },
                            {
                                "box": {
                                    "id": "obj-2",
                                    "maxclass": "newobj",
                                    "numinlets": 1,
                                    "numoutlets": 1,
                                    "outlettype": [ "" ],
                                    "patching_rect": [ 93.0, 75.0, 23.0, 22.0 ],
                                    "text": "- 1"
                                }
                            },
                            {
                                "box": {
                                    "id": "obj-44",
                                    "maxclass": "newobj",
                                    "numinlets": 0,
                                    "numoutlets": 1,
                                    "outlettype": [ "" ],
                                    "patching_rect": [ 180.0, 75.0, 86.0, 22.0 ],
                                    "text": "param divX 16"
                                }
                            },
                            {
                                "box": {
                                    "id": "obj-43",
                                    "maxclass": "newobj",
                                    "numinlets": 0,
                                    "numoutlets": 1,
                                    "outlettype": [ "" ],
                                    "patching_rect": [ 180.0, 45.0, 84.0, 22.0 ],
                                    "text": "param width 4"
                                }
                            },
                            {
                                "box": {
                                    "id": "obj-42",
                                    "maxclass": "newobj",
                                    "numinlets": 2,
                                    "numoutlets": 1,
                                    "outlettype": [ "" ],
                                    "patching_rect": [ 45.0, 300.0, 29.5, 22.0 ],
                                    "text": "||"
                                }
                            },
                            {
                                "box": {
                                    "id": "obj-40",
                                    "maxclass": "newobj",
                                    "numinlets": 1,
                                    "numoutlets": 1,
                                    "outlettype": [ "" ],
                                    "patching_rect": [ 111.0, 255.0, 41.0, 22.0 ],
                                    "text": "swiz y"
                                }
                            },
                            {
                                "box": {
                                    "id": "obj-41",
                                    "maxclass": "newobj",
                                    "numinlets": 1,
                                    "numoutlets": 1,
                                    "outlettype": [ "" ],
                                    "patching_rect": [ 45.0, 255.0, 41.0, 22.0 ],
                                    "text": "swiz x"
                                }
                            },
                            {
                                "box": {
                                    "id": "obj-39",
                                    "maxclass": "newobj",
                                    "numinlets": 1,
                                    "numoutlets": 1,
                                    "outlettype": [ "" ],
                                    "patching_rect": [ 93.0, 105.0, 44.0, 22.0 ],
                                    "text": "- width"
                                }
                            },
                            {
                                "box": {
                                    "id": "obj-37",
                                    "maxclass": "newobj",
                                    "numinlets": 1,
                                    "numoutlets": 1,
                                    "outlettype": [ "" ],
                                    "patching_rect": [ 45.0, 210.0, 47.0, 22.0 ],
                                    "text": "< width"
                                }
                            },
                            {
                                "box": {
                                    "id": "obj-35",
                                    "maxclass": "newobj",
                                    "numinlets": 1,
                                    "numoutlets": 1,
                                    "outlettype": [ "" ],
                                    "patching_rect": [ 93.0, 137.0, 65.0, 22.0 ],
                                    "text": "/ divX divY"
                                }
                            },
                            {
                                "box": {
                                    "id": "obj-34",
                                    "maxclass": "newobj",
                                    "numinlets": 0,
                                    "numoutlets": 1,
                                    "outlettype": [ "" ],
                                    "patching_rect": [ 93.0, 45.0, 28.0, 22.0 ],
                                    "text": "dim"
                                }
                            },
                            {
                                "box": {
                                    "id": "obj-33",
                                    "maxclass": "newobj",
                                    "numinlets": 2,
                                    "numoutlets": 1,
                                    "outlettype": [ "" ],
                                    "patching_rect": [ 45.0, 180.0, 29.5, 22.0 ],
                                    "text": "%"
                                }
                            },
                            {
                                "box": {
                                    "id": "obj-25",
                                    "maxclass": "newobj",
                                    "numinlets": 0,
                                    "numoutlets": 1,
                                    "outlettype": [ "" ],
                                    "patching_rect": [ 45.0, 45.0, 27.0, 22.0 ],
                                    "text": "cell"
                                }
                            },
                            {
                                "box": {
                                    "id": "obj-4",
                                    "maxclass": "newobj",
                                    "numinlets": 1,
                                    "numoutlets": 0,
                                    "patching_rect": [ 45.0, 360.0, 35.0, 22.0 ],
                                    "text": "out 1"
                                }
                            }
                        ],
                        "lines": [
                            {
                                "patchline": {
                                    "destination": [ "obj-4", 0 ],
                                    "source": [ "obj-10", 0 ]
                                }
                            },
                            {
                                "patchline": {
                                    "destination": [ "obj-39", 0 ],
                                    "source": [ "obj-2", 0 ]
                                }
                            },
                            {
                                "patchline": {
                                    "destination": [ "obj-33", 0 ],
                                    "source": [ "obj-25", 0 ]
                                }
                            },
                            {
                                "patchline": {
                                    "destination": [ "obj-37", 0 ],
                                    "source": [ "obj-33", 0 ]
                                }
                            },
                            {
                                "patchline": {
                                    "destination": [ "obj-2", 0 ],
                                    "source": [ "obj-34", 0 ]
                                }
                            },
                            {
                                "patchline": {
                                    "destination": [ "obj-33", 1 ],
                                    "source": [ "obj-35", 0 ]
                                }
                            },
                            {
                                "patchline": {
                                    "destination": [ "obj-40", 0 ],
                                    "order": 0,
                                    "source": [ "obj-37", 0 ]
                                }
                            },
                            {
                                "patchline": {
                                    "destination": [ "obj-41", 0 ],
                                    "order": 1,
                                    "source": [ "obj-37", 0 ]
                                }
                            },
                            {
                                "patchline": {
                                    "destination": [ "obj-35", 0 ],
                                    "source": [ "obj-39", 0 ]
                                }
                            },
                            {
                                "patchline": {
                                    "destination": [ "obj-42", 1 ],
                                    "source": [ "obj-40", 0 ]
                                }
                            },
                            {
                                "patchline": {
                                    "destination": [ "obj-42", 0 ],
                                    "source": [ "obj-41", 0 ]
                                }
                            },
                            {
                                "patchline": {
                                    "destination": [ "obj-10", 0 ],
                                    "source": [ "obj-42", 0 ]
                                }
                            }
                        ]
                    },
                    "patching_rect": [ 93.0, 375.0, 91.0, 22.0 ],
                    "text": "jit.gl.pix @t grid"
                }
            },
            {
                "box": {
                    "comment": "(texture) processed output",
                    "id": "obj-28",
                    "index": 1,
                    "maxclass": "outlet",
                    "numinlets": 1,
                    "numoutlets": 0,
                    "patching_rect": [ 52.0, 435.0, 30.0, 30.0 ]
                }
            },
            {
                "box": {
                    "id": "obj-7",
                    "maxclass": "newobj",
                    "numinlets": 1,
                    "numoutlets": 2,
                    "outlettype": [ "", "" ],
                    "patching_rect": [ 315.0, 34.0, 109.0, 22.0 ],
                    "text": "patcherargs 16 9 2"
                }
            },
            {
                "box": {
                    "comment": "(int) grid width x",
                    "cool": 1,
                    "id": "obj-6",
                    "index": 2,
                    "maxclass": "inlet",
                    "numinlets": 0,
                    "numoutlets": 1,
                    "outlettype": [ "" ],
                    "patching_rect": [ 145.0, 30.0, 30.0, 30.0 ]
                }
            },
            {
                "box": {
                    "comment": "(texture) jit_gl_texture, (bool) enable, (list) params",
                    "id": "obj-107",
                    "index": 1,
                    "maxclass": "inlet",
                    "numinlets": 0,
                    "numoutlets": 1,
                    "outlettype": [ "int" ],
                    "patching_rect": [ 93.0, 30.0, 30.0, 30.0 ]
                }
            }
        ],
        "lines": [
            {
                "patchline": {
                    "destination": [ "obj-20", 0 ],
                    "source": [ "obj-1", 1 ]
                }
            },
            {
                "patchline": {
                    "destination": [ "obj-28", 0 ],
                    "source": [ "obj-1", 0 ]
                }
            },
            {
                "patchline": {
                    "destination": [ "obj-2", 0 ],
                    "source": [ "obj-10", 0 ]
                }
            },
            {
                "patchline": {
                    "destination": [ "obj-27", 0 ],
                    "source": [ "obj-107", 0 ]
                }
            },
            {
                "patchline": {
                    "destination": [ "obj-20", 0 ],
                    "midpoints": [ 154.5, 363.0, 102.5, 363.0 ],
                    "source": [ "obj-11", 0 ]
                }
            },
            {
                "patchline": {
                    "destination": [ "obj-11", 0 ],
                    "source": [ "obj-2", 0 ]
                }
            },
            {
                "patchline": {
                    "destination": [ "obj-28", 0 ],
                    "source": [ "obj-20", 0 ]
                }
            },
            {
                "patchline": {
                    "destination": [ "obj-1", 0 ],
                    "source": [ "obj-26", 1 ]
                }
            },
            {
                "patchline": {
                    "destination": [ "obj-1", 0 ],
                    "source": [ "obj-26", 0 ]
                }
            },
            {
                "patchline": {
                    "destination": [ "obj-3", 0 ],
                    "source": [ "obj-26", 2 ]
                }
            },
            {
                "patchline": {
                    "destination": [ "obj-32", 0 ],
                    "midpoints": [ 305.0, 286.0, 375.42578125, 286.0, 375.42578125, 63.26953125, 324.5, 63.26953125 ],
                    "source": [ "obj-26", 3 ]
                }
            },
            {
                "patchline": {
                    "destination": [ "obj-1", 1 ],
                    "source": [ "obj-27", 0 ]
                }
            },
            {
                "patchline": {
                    "destination": [ "obj-26", 0 ],
                    "source": [ "obj-27", 1 ]
                }
            },
            {
                "patchline": {
                    "destination": [ "obj-1", 0 ],
                    "source": [ "obj-3", 0 ]
                }
            },
            {
                "patchline": {
                    "destination": [ "obj-2", 0 ],
                    "source": [ "obj-32", 2 ]
                }
            },
            {
                "patchline": {
                    "destination": [ "obj-5", 0 ],
                    "source": [ "obj-32", 1 ]
                }
            },
            {
                "patchline": {
                    "destination": [ "obj-8", 0 ],
                    "source": [ "obj-32", 0 ]
                }
            },
            {
                "patchline": {
                    "destination": [ "obj-5", 0 ],
                    "source": [ "obj-4", 0 ]
                }
            },
            {
                "patchline": {
                    "destination": [ "obj-11", 0 ],
                    "source": [ "obj-5", 0 ]
                }
            },
            {
                "patchline": {
                    "destination": [ "obj-8", 0 ],
                    "source": [ "obj-6", 0 ]
                }
            },
            {
                "patchline": {
                    "destination": [ "obj-32", 0 ],
                    "source": [ "obj-7", 0 ]
                }
            },
            {
                "patchline": {
                    "destination": [ "obj-11", 0 ],
                    "source": [ "obj-8", 0 ]
                }
            }
        ],
        "styles": [
            {
                "name": "AudioStatus_Menu",
                "default": {
                    "bgfillcolor": {
                        "angle": 270.0,
                        "autogradient": 0,
                        "color": [ 0.294118, 0.313726, 0.337255, 1 ],
                        "color1": [ 0.454902, 0.462745, 0.482353, 0.0 ],
                        "color2": [ 0.290196, 0.309804, 0.301961, 1.0 ],
                        "proportion": 0.39,
                        "type": "color"
                    }
                },
                "parentstyle": "",
                "multi": 0
            },
            {
                "name": "Audiomix",
                "default": {
                    "bgfillcolor": {
                        "angle": 270.0,
                        "color": [ 0.290196, 0.309804, 0.301961, 1.0 ],
                        "color1": [ 0.376471, 0.384314, 0.4, 1.0 ],
                        "color2": [ 0.290196, 0.309804, 0.301961, 1.0 ],
                        "proportion": 0.39,
                        "type": "gradient"
                    }
                },
                "parentstyle": "",
                "multi": 0
            },
            {
                "name": "numberB-1",
                "default": {
                    "accentcolor": [ 0.011765, 0.396078, 0.752941, 1.0 ]
                },
                "parentstyle": "",
                "multi": 0
            },
            {
                "name": "numberG-1",
                "default": {
                    "accentcolor": [ 0.0, 0.533333, 0.168627, 1.0 ]
                },
                "parentstyle": "",
                "multi": 0
            },
            {
                "name": "numberGold-1",
                "default": {
                    "accentcolor": [ 0.764706, 0.592157, 0.101961, 1.0 ]
                },
                "parentstyle": "",
                "multi": 0
            },
            {
                "name": "numberR-1",
                "default": {
                    "accentcolor": [ 0.784314, 0.145098, 0.023529, 1.0 ]
                },
                "parentstyle": "",
                "multi": 0
            }
        ],
        "toolbaradditions": [ "audiomute", "audiosolo", "packagemanager" ]
    }
}