{
    "patcher": {
        "fileversion": 1,
        "appversion": {
            "major": 9,
            "minor": 1,
            "revision": 1,
            "architecture": "x64",
            "modernui": 1
        },
        "classnamespace": "box",
        "rect": [ 368.0, 96.0, 680.0, 837.0 ],
        "boxes": [
            {
                "box": {
                    "id": "obj-5",
                    "linecount": 2,
                    "maxclass": "comment",
                    "numinlets": 1,
                    "numoutlets": 0,
                    "patching_rect": [ 438.0, 555.0, 150.0, 33.0 ],
                    "text": "Max9 users can also look at [jit.fx.cf.tiltblur]"
                }
            },
            {
                "box": {
                    "id": "obj-3",
                    "maxclass": "newobj",
                    "numinlets": 2,
                    "numoutlets": 1,
                    "outlettype": [ "int" ],
                    "patching_rect": [ 263.0, 480.0, 29.5, 22.0 ],
                    "text": "!- 1"
                }
            },
            {
                "box": {
                    "id": "obj-2",
                    "maxclass": "newobj",
                    "numinlets": 2,
                    "numoutlets": 2,
                    "outlettype": [ "jit_gl_texture", "jit_gl_texture" ],
                    "patching_rect": [ 49.0, 555.0, 60.0, 22.0 ],
                    "text": "av.enable"
                }
            },
            {
                "box": {
                    "id": "obj-19",
                    "linecount": 18,
                    "maxclass": "comment",
                    "numinlets": 1,
                    "numoutlets": 0,
                    "patching_rect": [ 438.0, 300.0, 213.0, 248.0 ],
                    "text": "arguments:\n<float> blur amount\n<float> edge feather\n<float> shape radius\n<int> shape (sphere, h-bar, v-bar)\n<float> offset x\n<float> offset y\n\nA blur filter pixel shader. Similar to the instagram blur filter effect. Change blur width, radius and blur amount. Set the shape (circle, horizontal bar, vertical bar) and change the offset for the focus\n\nTimo Hoogland (c) 2019\nwww.timohoogland.com\nMIT License"
                }
            },
            {
                "box": {
                    "id": "obj-46",
                    "maxclass": "newobj",
                    "numinlets": 2,
                    "numoutlets": 2,
                    "outlettype": [ "", "" ],
                    "patching_rect": [ 360.0, 210.0, 55.0, 22.0 ],
                    "text": "zl.slice 1"
                }
            },
            {
                "box": {
                    "id": "obj-44",
                    "maxclass": "newobj",
                    "numinlets": 2,
                    "numoutlets": 1,
                    "outlettype": [ "jit_gl_texture" ],
                    "patcher": {
                        "fileversion": 1,
                        "appversion": {
                            "major": 9,
                            "minor": 1,
                            "revision": 1,
                            "architecture": "x64",
                            "modernui": 1
                        },
                        "classnamespace": "box",
                        "rect": [ 59.0, 115.0, 640.0, 480.0 ],
                        "boxes": [
                            {
                                "box": {
                                    "id": "obj-26",
                                    "maxclass": "message",
                                    "numinlets": 2,
                                    "numoutlets": 1,
                                    "outlettype": [ "" ],
                                    "patching_rect": [ 105.25, 285.0, 101.0, 22.0 ],
                                    "text": "param width 0 $1"
                                }
                            },
                            {
                                "box": {
                                    "id": "obj-27",
                                    "maxclass": "message",
                                    "numinlets": 2,
                                    "numoutlets": 1,
                                    "outlettype": [ "" ],
                                    "patching_rect": [ 90.25, 330.0, 101.0, 22.0 ],
                                    "text": "param width $1 0"
                                }
                            },
                            {
                                "box": {
                                    "id": "obj-28",
                                    "maxclass": "newobj",
                                    "numinlets": 2,
                                    "numoutlets": 1,
                                    "outlettype": [ "float" ],
                                    "patching_rect": [ 50.25, 240.0, 29.5, 22.0 ],
                                    "text": "* 2."
                                }
                            },
                            {
                                "box": {
                                    "id": "obj-24",
                                    "maxclass": "message",
                                    "numinlets": 2,
                                    "numoutlets": 1,
                                    "outlettype": [ "" ],
                                    "patching_rect": [ 105.0, 195.0, 101.0, 22.0 ],
                                    "text": "param width 0 $1"
                                }
                            },
                            {
                                "box": {
                                    "id": "obj-25",
                                    "maxclass": "message",
                                    "numinlets": 2,
                                    "numoutlets": 1,
                                    "outlettype": [ "" ],
                                    "patching_rect": [ 90.0, 240.0, 101.0, 22.0 ],
                                    "text": "param width $1 0"
                                }
                            },
                            {
                                "box": {
                                    "id": "obj-17",
                                    "maxclass": "newobj",
                                    "numinlets": 2,
                                    "numoutlets": 1,
                                    "outlettype": [ "float" ],
                                    "patching_rect": [ 50.25, 150.0, 29.5, 22.0 ],
                                    "text": "* 2."
                                }
                            },
                            {
                                "box": {
                                    "id": "obj-6",
                                    "maxclass": "newobj",
                                    "numinlets": 2,
                                    "numoutlets": 2,
                                    "outlettype": [ "", "" ],
                                    "patching_rect": [ 240.0, 105.0, 101.0, 22.0 ],
                                    "text": "routepass enable"
                                }
                            },
                            {
                                "box": {
                                    "filename": "cf.gaussian.2p.jxs",
                                    "id": "obj-3",
                                    "maxclass": "newobj",
                                    "numinlets": 2,
                                    "numoutlets": 2,
                                    "outlettype": [ "jit_gl_texture", "" ],
                                    "patching_rect": [ 322.0, 300.0, 187.0, 22.0 ],
                                    "text": "jit.gl.slab @file cf.gaussian.2p.jxs",
                                    "textfile": {
                                        "filename": "cf.gaussian.2p.jxs",
                                        "flags": 0,
                                        "embed": 0,
                                        "autowatch": 1
                                    }
                                }
                            },
                            {
                                "box": {
                                    "filename": "cf.gaussian.2p.jxs",
                                    "id": "obj-4",
                                    "maxclass": "newobj",
                                    "numinlets": 2,
                                    "numoutlets": 2,
                                    "outlettype": [ "jit_gl_texture", "" ],
                                    "patching_rect": [ 322.0, 270.0, 187.0, 22.0 ],
                                    "text": "jit.gl.slab @file cf.gaussian.2p.jxs",
                                    "textfile": {
                                        "filename": "cf.gaussian.2p.jxs",
                                        "flags": 0,
                                        "embed": 0,
                                        "autowatch": 1
                                    }
                                }
                            },
                            {
                                "box": {
                                    "comment": "",
                                    "id": "obj-1",
                                    "index": 2,
                                    "maxclass": "inlet",
                                    "numinlets": 0,
                                    "numoutlets": 1,
                                    "outlettype": [ "jit_gl_texture" ],
                                    "patching_rect": [ 240.0, 40.0, 30.0, 30.0 ]
                                }
                            },
                            {
                                "box": {
                                    "filename": "cf.gaussian.2p.jxs",
                                    "id": "obj-2",
                                    "maxclass": "newobj",
                                    "numinlets": 2,
                                    "numoutlets": 2,
                                    "outlettype": [ "jit_gl_texture", "" ],
                                    "patching_rect": [ 322.0, 240.0, 187.0, 22.0 ],
                                    "text": "jit.gl.slab @file cf.gaussian.2p.jxs",
                                    "textfile": {
                                        "filename": "cf.gaussian.2p.jxs",
                                        "flags": 0,
                                        "embed": 0,
                                        "autowatch": 1
                                    }
                                }
                            },
                            {
                                "box": {
                                    "filename": "cf.gaussian.2p.jxs",
                                    "id": "obj-7",
                                    "maxclass": "newobj",
                                    "numinlets": 2,
                                    "numoutlets": 2,
                                    "outlettype": [ "jit_gl_texture", "" ],
                                    "patching_rect": [ 322.0, 210.0, 187.0, 22.0 ],
                                    "text": "jit.gl.slab @file cf.gaussian.2p.jxs",
                                    "textfile": {
                                        "filename": "cf.gaussian.2p.jxs",
                                        "flags": 0,
                                        "embed": 0,
                                        "autowatch": 1
                                    }
                                }
                            },
                            {
                                "box": {
                                    "id": "obj-98",
                                    "maxclass": "message",
                                    "numinlets": 2,
                                    "numoutlets": 1,
                                    "outlettype": [ "" ],
                                    "patching_rect": [ 135.0, 105.0, 101.0, 22.0 ],
                                    "text": "param width 0 $1"
                                }
                            },
                            {
                                "box": {
                                    "filename": "cf.gaussian.2p.jxs",
                                    "id": "obj-187",
                                    "maxclass": "newobj",
                                    "numinlets": 2,
                                    "numoutlets": 2,
                                    "outlettype": [ "jit_gl_texture", "" ],
                                    "patching_rect": [ 322.0, 180.0, 187.0, 22.0 ],
                                    "text": "jit.gl.slab @file cf.gaussian.2p.jxs",
                                    "textfile": {
                                        "filename": "cf.gaussian.2p.jxs",
                                        "flags": 0,
                                        "embed": 0,
                                        "autowatch": 1
                                    }
                                }
                            },
                            {
                                "box": {
                                    "id": "obj-131",
                                    "maxclass": "message",
                                    "numinlets": 2,
                                    "numoutlets": 1,
                                    "outlettype": [ "" ],
                                    "patching_rect": [ 120.0, 150.0, 101.0, 22.0 ],
                                    "text": "param width $1 0"
                                }
                            },
                            {
                                "box": {
                                    "filename": "cf.gaussian.2p.jxs",
                                    "id": "obj-11",
                                    "maxclass": "newobj",
                                    "numinlets": 2,
                                    "numoutlets": 2,
                                    "outlettype": [ "jit_gl_texture", "" ],
                                    "patching_rect": [ 322.0, 150.0, 187.0, 22.0 ],
                                    "text": "jit.gl.slab @file cf.gaussian.2p.jxs",
                                    "textfile": {
                                        "filename": "cf.gaussian.2p.jxs",
                                        "flags": 0,
                                        "embed": 0,
                                        "autowatch": 1
                                    }
                                }
                            },
                            {
                                "box": {
                                    "comment": "",
                                    "id": "obj-42",
                                    "index": 1,
                                    "maxclass": "inlet",
                                    "numinlets": 0,
                                    "numoutlets": 1,
                                    "outlettype": [ "" ],
                                    "patching_rect": [ 50.0, 40.0, 30.0, 30.0 ]
                                }
                            },
                            {
                                "box": {
                                    "comment": "",
                                    "id": "obj-43",
                                    "index": 1,
                                    "maxclass": "outlet",
                                    "numinlets": 1,
                                    "numoutlets": 0,
                                    "patching_rect": [ 322.0, 349.0, 30.0, 30.0 ]
                                }
                            }
                        ],
                        "lines": [
                            {
                                "patchline": {
                                    "destination": [ "obj-6", 0 ],
                                    "source": [ "obj-1", 0 ]
                                }
                            },
                            {
                                "patchline": {
                                    "destination": [ "obj-187", 0 ],
                                    "source": [ "obj-11", 0 ]
                                }
                            },
                            {
                                "patchline": {
                                    "destination": [ "obj-187", 0 ],
                                    "source": [ "obj-131", 0 ]
                                }
                            },
                            {
                                "patchline": {
                                    "destination": [ "obj-24", 0 ],
                                    "order": 0,
                                    "source": [ "obj-17", 0 ]
                                }
                            },
                            {
                                "patchline": {
                                    "destination": [ "obj-25", 0 ],
                                    "order": 1,
                                    "source": [ "obj-17", 0 ]
                                }
                            },
                            {
                                "patchline": {
                                    "destination": [ "obj-28", 0 ],
                                    "order": 2,
                                    "source": [ "obj-17", 0 ]
                                }
                            },
                            {
                                "patchline": {
                                    "destination": [ "obj-7", 0 ],
                                    "source": [ "obj-187", 0 ]
                                }
                            },
                            {
                                "patchline": {
                                    "destination": [ "obj-4", 0 ],
                                    "source": [ "obj-2", 0 ]
                                }
                            },
                            {
                                "patchline": {
                                    "destination": [ "obj-7", 0 ],
                                    "source": [ "obj-24", 0 ]
                                }
                            },
                            {
                                "patchline": {
                                    "destination": [ "obj-2", 0 ],
                                    "source": [ "obj-25", 0 ]
                                }
                            },
                            {
                                "patchline": {
                                    "destination": [ "obj-4", 0 ],
                                    "source": [ "obj-26", 0 ]
                                }
                            },
                            {
                                "patchline": {
                                    "destination": [ "obj-3", 0 ],
                                    "source": [ "obj-27", 0 ]
                                }
                            },
                            {
                                "patchline": {
                                    "destination": [ "obj-26", 0 ],
                                    "order": 0,
                                    "source": [ "obj-28", 0 ]
                                }
                            },
                            {
                                "patchline": {
                                    "destination": [ "obj-27", 0 ],
                                    "order": 1,
                                    "source": [ "obj-28", 0 ]
                                }
                            },
                            {
                                "patchline": {
                                    "destination": [ "obj-43", 0 ],
                                    "source": [ "obj-3", 0 ]
                                }
                            },
                            {
                                "patchline": {
                                    "destination": [ "obj-3", 0 ],
                                    "source": [ "obj-4", 0 ]
                                }
                            },
                            {
                                "patchline": {
                                    "destination": [ "obj-131", 0 ],
                                    "order": 1,
                                    "source": [ "obj-42", 0 ]
                                }
                            },
                            {
                                "patchline": {
                                    "destination": [ "obj-17", 0 ],
                                    "order": 2,
                                    "source": [ "obj-42", 0 ]
                                }
                            },
                            {
                                "patchline": {
                                    "destination": [ "obj-98", 0 ],
                                    "order": 0,
                                    "source": [ "obj-42", 0 ]
                                }
                            },
                            {
                                "patchline": {
                                    "destination": [ "obj-11", 0 ],
                                    "source": [ "obj-6", 1 ]
                                }
                            },
                            {
                                "patchline": {
                                    "destination": [ "obj-11", 0 ],
                                    "order": 5,
                                    "source": [ "obj-6", 0 ]
                                }
                            },
                            {
                                "patchline": {
                                    "destination": [ "obj-187", 0 ],
                                    "order": 4,
                                    "source": [ "obj-6", 0 ]
                                }
                            },
                            {
                                "patchline": {
                                    "destination": [ "obj-2", 0 ],
                                    "order": 2,
                                    "source": [ "obj-6", 0 ]
                                }
                            },
                            {
                                "patchline": {
                                    "destination": [ "obj-3", 0 ],
                                    "order": 0,
                                    "source": [ "obj-6", 0 ]
                                }
                            },
                            {
                                "patchline": {
                                    "destination": [ "obj-4", 0 ],
                                    "order": 1,
                                    "source": [ "obj-6", 0 ]
                                }
                            },
                            {
                                "patchline": {
                                    "destination": [ "obj-7", 0 ],
                                    "order": 3,
                                    "source": [ "obj-6", 0 ]
                                }
                            },
                            {
                                "patchline": {
                                    "destination": [ "obj-2", 0 ],
                                    "source": [ "obj-7", 0 ]
                                }
                            },
                            {
                                "patchline": {
                                    "destination": [ "obj-11", 0 ],
                                    "source": [ "obj-98", 0 ]
                                }
                            }
                        ],
                        "toolbaradditions": [ "audiomute", "audiosolo", "packagemanager" ]
                    },
                    "patching_rect": [ 275.0, 600.0, 63.0, 22.0 ],
                    "text": "p gauss6x"
                }
            },
            {
                "box": {
                    "id": "obj-26",
                    "maxclass": "newobj",
                    "numinlets": 5,
                    "numoutlets": 5,
                    "outlettype": [ "", "", "", "", "" ],
                    "patching_rect": [ 204.0, 450.0, 137.0, 22.0 ],
                    "text": "route int float bypass list"
                }
            },
            {
                "box": {
                    "id": "obj-21",
                    "maxclass": "newobj",
                    "numinlets": 2,
                    "numoutlets": 2,
                    "outlettype": [ "", "" ],
                    "patching_rect": [ 90.0, 420.0, 133.0, 22.0 ],
                    "text": "routepass jit_gl_texture"
                }
            },
            {
                "box": {
                    "comment": "(texture) processed output",
                    "id": "obj-39",
                    "index": 1,
                    "maxclass": "outlet",
                    "numinlets": 1,
                    "numoutlets": 0,
                    "patching_rect": [ 49.0, 675.0, 30.0, 30.0 ]
                }
            },
            {
                "box": {
                    "id": "obj-1",
                    "maxclass": "newobj",
                    "numinlets": 2,
                    "numoutlets": 2,
                    "outlettype": [ "", "" ],
                    "patching_rect": [ 360.0, 165.0, 55.0, 22.0 ],
                    "text": "zl.slice 3"
                }
            },
            {
                "box": {
                    "id": "obj-37",
                    "maxclass": "newobj",
                    "numinlets": 1,
                    "numoutlets": 1,
                    "outlettype": [ "bang" ],
                    "patching_rect": [ 360.0, 90.0, 58.0, 22.0 ],
                    "text": "loadbang"
                }
            },
            {
                "box": {
                    "id": "obj-35",
                    "maxclass": "newobj",
                    "numinlets": 3,
                    "numoutlets": 3,
                    "outlettype": [ "", "", "" ],
                    "patching_rect": [ 491.0, 165.0, 104.0, 22.0 ],
                    "text": "route shape offset"
                }
            },
            {
                "box": {
                    "id": "obj-34",
                    "maxclass": "newobj",
                    "numinlets": 1,
                    "numoutlets": 2,
                    "outlettype": [ "", "" ],
                    "patching_rect": [ 360.0, 120.0, 235.0, 22.0 ],
                    "text": "patcherargs 3 0.5 0 @offset 0 0 @shape 0"
                }
            },
            {
                "box": {
                    "comment": "(int) shape (circle, h-bar, v-bar)",
                    "cool": 1,
                    "id": "obj-33",
                    "index": 3,
                    "maxclass": "inlet",
                    "numinlets": 0,
                    "numoutlets": 1,
                    "outlettype": [ "" ],
                    "patching_rect": [ 255.0, 45.0, 30.0, 30.0 ]
                }
            },
            {
                "box": {
                    "comment": "(list) offset x, offset y",
                    "cool": 1,
                    "id": "obj-12",
                    "index": 4,
                    "maxclass": "inlet",
                    "numinlets": 0,
                    "numoutlets": 1,
                    "outlettype": [ "" ],
                    "patching_rect": [ 319.0, 45.0, 30.0, 30.0 ]
                }
            },
            {
                "box": {
                    "id": "obj-36",
                    "maxclass": "newobj",
                    "numinlets": 1,
                    "numoutlets": 1,
                    "outlettype": [ "" ],
                    "patching_rect": [ 165.0, 345.0, 20.0, 22.0 ],
                    "text": "t l"
                }
            },
            {
                "box": {
                    "id": "obj-29",
                    "maxclass": "message",
                    "numinlets": 2,
                    "numoutlets": 1,
                    "outlettype": [ "" ],
                    "patching_rect": [ 319.0, 300.0, 73.0, 22.0 ],
                    "text": "offset $1 $2"
                }
            },
            {
                "box": {
                    "id": "obj-8",
                    "maxclass": "newobj",
                    "numinlets": 1,
                    "numoutlets": 4,
                    "outlettype": [ "", "", "", "" ],
                    "patching_rect": [ 137.0, 210.0, 103.00000000000006, 22.0 ],
                    "text": "unjoin 3"
                }
            },
            {
                "box": {
                    "comment": "(list) blur amount, edge feather, radius",
                    "cool": 1,
                    "id": "obj-6",
                    "index": 2,
                    "maxclass": "inlet",
                    "numinlets": 0,
                    "numoutlets": 1,
                    "outlettype": [ "" ],
                    "patching_rect": [ 137.0, 45.0, 30.0, 30.0 ]
                }
            },
            {
                "box": {
                    "id": "obj-92",
                    "maxclass": "message",
                    "numinlets": 2,
                    "numoutlets": 1,
                    "outlettype": [ "" ],
                    "patching_rect": [ 255.0, 300.0, 60.0, 22.0 ],
                    "text": "shape $1"
                }
            },
            {
                "box": {
                    "id": "obj-86",
                    "maxclass": "message",
                    "numinlets": 2,
                    "numoutlets": 1,
                    "outlettype": [ "" ],
                    "patching_rect": [ 193.00000000000003, 240.0, 60.0, 22.0 ],
                    "text": "radius $1"
                }
            },
            {
                "box": {
                    "id": "obj-79",
                    "maxclass": "message",
                    "numinlets": 2,
                    "numoutlets": 1,
                    "outlettype": [ "" ],
                    "patching_rect": [ 165.0, 270.0, 80.0, 22.0 ],
                    "text": "blur_width $1"
                }
            },
            {
                "box": {
                    "id": "obj-139",
                    "maxclass": "newobj",
                    "numinlets": 2,
                    "numoutlets": 2,
                    "outlettype": [ "jit_gl_texture", "" ],
                    "patcher": {
                        "fileversion": 1,
                        "appversion": {
                            "major": 9,
                            "minor": 1,
                            "revision": 1,
                            "architecture": "x64",
                            "modernui": 1
                        },
                        "classnamespace": "jit.gen",
                        "rect": [ 308.0, 244.0, 763.0, 616.0 ],
                        "boxes": [
                            {
                                "box": {
                                    "id": "obj-6",
                                    "linecount": 5,
                                    "maxclass": "comment",
                                    "numinlets": 1,
                                    "numoutlets": 0,
                                    "patching_rect": [ 312.0, 403.0, 154.0, 74.0 ],
                                    "text": "a smoothstepped mixer for the combining a blur effect with the original texture. Providing different shapes for the mixing area's."
                                }
                            },
                            {
                                "box": {
                                    "code": "Param shape(0);\r\n\r\nif (shape == 0){\r\n\tout1 = sin(length(in1) / 1.414);\r\n}\r\nelse if (shape == 1){\r\n\tout1 = 1 - cos(in1.y * PI);\r\n}\r\nelse if (shape == 2){\r\n\tout1 = 1 - cos(in1.x * PI);\r\n}",
                                    "fontface": 0,
                                    "fontname": "<Monospaced>",
                                    "fontsize": 12.0,
                                    "id": "obj-14",
                                    "maxclass": "codebox",
                                    "numinlets": 1,
                                    "numoutlets": 1,
                                    "outlettype": [ "" ],
                                    "patching_rect": [ 314.166656, 151.0, 345.833344, 217.0 ]
                                }
                            },
                            {
                                "box": {
                                    "id": "obj-28",
                                    "maxclass": "newobj",
                                    "numinlets": 2,
                                    "numoutlets": 1,
                                    "outlettype": [ "" ],
                                    "patching_rect": [ 480.0, 45.0, 53.0, 22.0 ],
                                    "text": "vec -1 1"
                                }
                            },
                            {
                                "box": {
                                    "id": "obj-27",
                                    "maxclass": "newobj",
                                    "numinlets": 2,
                                    "numoutlets": 1,
                                    "outlettype": [ "" ],
                                    "patching_rect": [ 372.833344, 91.0, 29.5, 22.0 ],
                                    "text": "*"
                                }
                            },
                            {
                                "box": {
                                    "id": "obj-26",
                                    "maxclass": "newobj",
                                    "numinlets": 2,
                                    "numoutlets": 1,
                                    "outlettype": [ "" ],
                                    "patching_rect": [ 314.166656, 120.0, 77.666687, 22.0 ],
                                    "text": "+"
                                }
                            },
                            {
                                "box": {
                                    "id": "obj-13",
                                    "maxclass": "newobj",
                                    "numinlets": 0,
                                    "numoutlets": 1,
                                    "outlettype": [ "" ],
                                    "patching_rect": [ 372.833344, 45.0, 97.0, 22.0 ],
                                    "text": "param offset 0 0"
                                }
                            },
                            {
                                "box": {
                                    "id": "obj-25",
                                    "maxclass": "newobj",
                                    "numinlets": 2,
                                    "numoutlets": 1,
                                    "outlettype": [ "" ],
                                    "patching_rect": [ 121.5, 285.0, 29.5, 22.0 ],
                                    "text": "+"
                                }
                            },
                            {
                                "box": {
                                    "id": "obj-24",
                                    "maxclass": "newobj",
                                    "numinlets": 0,
                                    "numoutlets": 1,
                                    "outlettype": [ "" ],
                                    "patching_rect": [ 155.0, 240.0, 107.0, 22.0 ],
                                    "text": "param radius 0.15"
                                }
                            },
                            {
                                "box": {
                                    "id": "obj-23",
                                    "maxclass": "newobj",
                                    "numinlets": 0,
                                    "numoutlets": 1,
                                    "outlettype": [ "" ],
                                    "patching_rect": [ 121.5, 195.0, 123.0, 22.0 ],
                                    "text": "param blur_width 0.5"
                                }
                            },
                            {
                                "box": {
                                    "id": "obj-22",
                                    "maxclass": "newobj",
                                    "numinlets": 0,
                                    "numoutlets": 1,
                                    "outlettype": [ "" ],
                                    "patching_rect": [ 569.0, 45.0, 91.0, 22.0 ],
                                    "text": "param shape 0"
                                }
                            },
                            {
                                "box": {
                                    "id": "obj-12",
                                    "maxclass": "newobj",
                                    "numinlets": 3,
                                    "numoutlets": 1,
                                    "outlettype": [ "" ],
                                    "patching_rect": [ 155.0, 346.0, 119.5, 22.0 ],
                                    "text": "smoothstep"
                                }
                            },
                            {
                                "box": {
                                    "id": "obj-7",
                                    "maxclass": "newobj",
                                    "numinlets": 0,
                                    "numoutlets": 1,
                                    "outlettype": [ "" ],
                                    "patching_rect": [ 314.166656, 45.0, 44.0, 22.0 ],
                                    "text": "snorm"
                                }
                            },
                            {
                                "box": {
                                    "id": "obj-5",
                                    "maxclass": "newobj",
                                    "numinlets": 3,
                                    "numoutlets": 1,
                                    "outlettype": [ "" ],
                                    "patching_rect": [ 45.0, 405.0, 129.0, 22.0 ],
                                    "text": "mix"
                                }
                            },
                            {
                                "box": {
                                    "id": "obj-1",
                                    "maxclass": "newobj",
                                    "numinlets": 0,
                                    "numoutlets": 1,
                                    "outlettype": [ "" ],
                                    "patching_rect": [ 45.0, 45.0, 30.0, 22.0 ],
                                    "text": "in 1"
                                }
                            },
                            {
                                "box": {
                                    "id": "obj-2",
                                    "maxclass": "newobj",
                                    "numinlets": 0,
                                    "numoutlets": 1,
                                    "outlettype": [ "" ],
                                    "patching_rect": [ 100.0, 45.0, 30.0, 22.0 ],
                                    "text": "in 2"
                                }
                            },
                            {
                                "box": {
                                    "id": "obj-4",
                                    "maxclass": "newobj",
                                    "numinlets": 1,
                                    "numoutlets": 0,
                                    "patching_rect": [ 45.0, 465.0, 37.0, 22.0 ],
                                    "text": "out 1"
                                }
                            }
                        ],
                        "lines": [
                            {
                                "patchline": {
                                    "destination": [ "obj-5", 0 ],
                                    "source": [ "obj-1", 0 ]
                                }
                            },
                            {
                                "patchline": {
                                    "destination": [ "obj-5", 2 ],
                                    "source": [ "obj-12", 0 ]
                                }
                            },
                            {
                                "patchline": {
                                    "destination": [ "obj-27", 0 ],
                                    "source": [ "obj-13", 0 ]
                                }
                            },
                            {
                                "patchline": {
                                    "destination": [ "obj-12", 2 ],
                                    "source": [ "obj-14", 0 ]
                                }
                            },
                            {
                                "patchline": {
                                    "destination": [ "obj-5", 1 ],
                                    "source": [ "obj-2", 0 ]
                                }
                            },
                            {
                                "patchline": {
                                    "destination": [ "obj-25", 0 ],
                                    "source": [ "obj-23", 0 ]
                                }
                            },
                            {
                                "patchline": {
                                    "destination": [ "obj-12", 0 ],
                                    "order": 0,
                                    "source": [ "obj-24", 0 ]
                                }
                            },
                            {
                                "patchline": {
                                    "destination": [ "obj-25", 1 ],
                                    "order": 1,
                                    "source": [ "obj-24", 0 ]
                                }
                            },
                            {
                                "patchline": {
                                    "destination": [ "obj-12", 1 ],
                                    "source": [ "obj-25", 0 ]
                                }
                            },
                            {
                                "patchline": {
                                    "destination": [ "obj-14", 0 ],
                                    "source": [ "obj-26", 0 ]
                                }
                            },
                            {
                                "patchline": {
                                    "destination": [ "obj-26", 1 ],
                                    "source": [ "obj-27", 0 ]
                                }
                            },
                            {
                                "patchline": {
                                    "destination": [ "obj-27", 1 ],
                                    "source": [ "obj-28", 0 ]
                                }
                            },
                            {
                                "patchline": {
                                    "destination": [ "obj-4", 0 ],
                                    "source": [ "obj-5", 0 ]
                                }
                            },
                            {
                                "patchline": {
                                    "destination": [ "obj-26", 0 ],
                                    "source": [ "obj-7", 0 ]
                                }
                            }
                        ],
                        "editing_bgcolor": [ 0.9, 0.9, 0.9, 1.0 ]
                    },
                    "patching_rect": [ 165.0, 630.0, 129.0, 22.0 ],
                    "text": "jit.gl.pix @title blur-mix"
                }
            },
            {
                "box": {
                    "comment": "(texture) jit_gl_texture input",
                    "id": "obj-107",
                    "index": 1,
                    "maxclass": "inlet",
                    "numinlets": 0,
                    "numoutlets": 1,
                    "outlettype": [ "int" ],
                    "patching_rect": [ 90.0, 45.0, 30.0, 30.0 ],
                    "varname": "u830004024"
                }
            }
        ],
        "lines": [
            {
                "patchline": {
                    "destination": [ "obj-46", 0 ],
                    "source": [ "obj-1", 1 ]
                }
            },
            {
                "patchline": {
                    "destination": [ "obj-8", 0 ],
                    "source": [ "obj-1", 0 ]
                }
            },
            {
                "patchline": {
                    "destination": [ "obj-21", 0 ],
                    "source": [ "obj-107", 0 ]
                }
            },
            {
                "patchline": {
                    "destination": [ "obj-29", 0 ],
                    "source": [ "obj-12", 0 ]
                }
            },
            {
                "patchline": {
                    "destination": [ "obj-39", 0 ],
                    "source": [ "obj-139", 0 ]
                }
            },
            {
                "patchline": {
                    "destination": [ "obj-139", 0 ],
                    "order": 1,
                    "source": [ "obj-2", 1 ]
                }
            },
            {
                "patchline": {
                    "destination": [ "obj-39", 0 ],
                    "source": [ "obj-2", 0 ]
                }
            },
            {
                "patchline": {
                    "destination": [ "obj-44", 1 ],
                    "order": 0,
                    "source": [ "obj-2", 1 ]
                }
            },
            {
                "patchline": {
                    "destination": [ "obj-2", 1 ],
                    "source": [ "obj-21", 0 ]
                }
            },
            {
                "patchline": {
                    "destination": [ "obj-26", 0 ],
                    "source": [ "obj-21", 1 ]
                }
            },
            {
                "patchline": {
                    "destination": [ "obj-1", 0 ],
                    "midpoints": [ 302.0, 482.0, 422.5, 482.0, 422.5, 154.0, 369.5, 154.0 ],
                    "source": [ "obj-26", 3 ]
                }
            },
            {
                "patchline": {
                    "destination": [ "obj-2", 0 ],
                    "source": [ "obj-26", 1 ]
                }
            },
            {
                "patchline": {
                    "destination": [ "obj-2", 0 ],
                    "source": [ "obj-26", 0 ]
                }
            },
            {
                "patchline": {
                    "destination": [ "obj-3", 0 ],
                    "source": [ "obj-26", 2 ]
                }
            },
            {
                "patchline": {
                    "destination": [ "obj-36", 0 ],
                    "source": [ "obj-29", 0 ]
                }
            },
            {
                "patchline": {
                    "destination": [ "obj-2", 0 ],
                    "source": [ "obj-3", 0 ]
                }
            },
            {
                "patchline": {
                    "destination": [ "obj-92", 0 ],
                    "source": [ "obj-33", 0 ]
                }
            },
            {
                "patchline": {
                    "destination": [ "obj-1", 0 ],
                    "source": [ "obj-34", 0 ]
                }
            },
            {
                "patchline": {
                    "destination": [ "obj-35", 0 ],
                    "source": [ "obj-34", 1 ]
                }
            },
            {
                "patchline": {
                    "destination": [ "obj-29", 0 ],
                    "source": [ "obj-35", 1 ]
                }
            },
            {
                "patchline": {
                    "destination": [ "obj-92", 0 ],
                    "source": [ "obj-35", 0 ]
                }
            },
            {
                "patchline": {
                    "destination": [ "obj-139", 0 ],
                    "source": [ "obj-36", 0 ]
                }
            },
            {
                "patchline": {
                    "destination": [ "obj-34", 0 ],
                    "source": [ "obj-37", 0 ]
                }
            },
            {
                "patchline": {
                    "destination": [ "obj-139", 1 ],
                    "source": [ "obj-44", 0 ]
                }
            },
            {
                "patchline": {
                    "destination": [ "obj-29", 0 ],
                    "source": [ "obj-46", 1 ]
                }
            },
            {
                "patchline": {
                    "destination": [ "obj-79", 0 ],
                    "source": [ "obj-46", 0 ]
                }
            },
            {
                "patchline": {
                    "destination": [ "obj-8", 0 ],
                    "source": [ "obj-6", 0 ]
                }
            },
            {
                "patchline": {
                    "destination": [ "obj-36", 0 ],
                    "source": [ "obj-79", 0 ]
                }
            },
            {
                "patchline": {
                    "destination": [ "obj-44", 0 ],
                    "midpoints": [ 146.5, 396.5, 284.5, 396.5 ],
                    "source": [ "obj-8", 0 ]
                }
            },
            {
                "patchline": {
                    "destination": [ "obj-79", 0 ],
                    "source": [ "obj-8", 1 ]
                }
            },
            {
                "patchline": {
                    "destination": [ "obj-86", 0 ],
                    "source": [ "obj-8", 2 ]
                }
            },
            {
                "patchline": {
                    "destination": [ "obj-36", 0 ],
                    "source": [ "obj-86", 0 ]
                }
            },
            {
                "patchline": {
                    "destination": [ "obj-36", 0 ],
                    "source": [ "obj-92", 0 ]
                }
            }
        ],
        "styles": [
            {
                "name": "AudioStatus_Menu",
                "default": {
                    "bgfillcolor": {
                        "angle": 270.0,
                        "autogradient": 0,
                        "color": [ 0.294118, 0.313726, 0.337255, 1 ],
                        "color1": [ 0.454902, 0.462745, 0.482353, 0.0 ],
                        "color2": [ 0.290196, 0.309804, 0.301961, 1.0 ],
                        "proportion": 0.39,
                        "type": "color"
                    }
                },
                "parentstyle": "",
                "multi": 0
            },
            {
                "name": "Audiomix",
                "default": {
                    "bgfillcolor": {
                        "angle": 270.0,
                        "color": [ 0.290196, 0.309804, 0.301961, 1.0 ],
                        "color1": [ 0.376471, 0.384314, 0.4, 1.0 ],
                        "color2": [ 0.290196, 0.309804, 0.301961, 1.0 ],
                        "proportion": 0.39,
                        "type": "gradient"
                    }
                },
                "parentstyle": "",
                "multi": 0
            },
            {
                "name": "numberB-1",
                "default": {
                    "accentcolor": [ 0.011765, 0.396078, 0.752941, 1.0 ]
                },
                "parentstyle": "",
                "multi": 0
            },
            {
                "name": "numberG-1",
                "default": {
                    "accentcolor": [ 0.0, 0.533333, 0.168627, 1.0 ]
                },
                "parentstyle": "",
                "multi": 0
            },
            {
                "name": "numberGold-1",
                "default": {
                    "accentcolor": [ 0.764706, 0.592157, 0.101961, 1.0 ]
                },
                "parentstyle": "",
                "multi": 0
            },
            {
                "name": "numberR-1",
                "default": {
                    "accentcolor": [ 0.784314, 0.145098, 0.023529, 1.0 ]
                },
                "parentstyle": "",
                "multi": 0
            }
        ],
        "toolbaradditions": [ "audiomute", "audiosolo", "packagemanager" ]
    }
}