{
    "patcher": {
        "fileversion": 1,
        "appversion": {
            "major": 9,
            "minor": 1,
            "revision": 1,
            "architecture": "x64",
            "modernui": 1
        },
        "classnamespace": "box",
        "rect": [ 782.0, 96.0, 680.0, 837.0 ],
        "boxes": [
            {
                "box": {
                    "id": "obj-11",
                    "maxclass": "newobj",
                    "numinlets": 1,
                    "numoutlets": 1,
                    "outlettype": [ "" ],
                    "patching_rect": [ 156.0, 345.0, 72.0, 22.0 ],
                    "text": "prepend set"
                }
            },
            {
                "box": {
                    "id": "obj-9",
                    "maxclass": "newobj",
                    "numinlets": 1,
                    "numoutlets": 1,
                    "outlettype": [ "" ],
                    "patching_rect": [ 337.0, 555.0, 90.0, 22.0 ],
                    "text": "prepend param"
                }
            },
            {
                "box": {
                    "id": "obj-3",
                    "maxclass": "newobj",
                    "numinlets": 2,
                    "numoutlets": 1,
                    "outlettype": [ "int" ],
                    "patching_rect": [ 278.0, 525.0, 29.5, 22.0 ],
                    "text": "!- 1"
                }
            },
            {
                "box": {
                    "id": "obj-2",
                    "maxclass": "newobj",
                    "numinlets": 2,
                    "numoutlets": 2,
                    "outlettype": [ "jit_gl_texture", "jit_gl_texture" ],
                    "patching_rect": [ 64.0, 600.0, 60.0, 22.0 ],
                    "text": "av.enable"
                }
            },
            {
                "box": {
                    "id": "obj-33",
                    "maxclass": "message",
                    "numinlets": 2,
                    "numoutlets": 1,
                    "outlettype": [ "" ],
                    "patching_rect": [ 141.0, 720.0, 29.5, 22.0 ],
                    "text": "$2"
                }
            },
            {
                "box": {
                    "id": "obj-22",
                    "maxclass": "newobj",
                    "numinlets": 2,
                    "numoutlets": 2,
                    "outlettype": [ "bang", "" ],
                    "patching_rect": [ 141.0, 750.0, 34.0, 22.0 ],
                    "text": "sel 1"
                }
            },
            {
                "box": {
                    "id": "obj-10",
                    "maxclass": "newobj",
                    "numinlets": 0,
                    "numoutlets": 1,
                    "outlettype": [ "" ],
                    "patching_rect": [ 420.0, 45.0, 73.0, 22.0 ],
                    "text": "r #0_read"
                }
            },
            {
                "box": {
                    "id": "obj-8",
                    "maxclass": "newobj",
                    "numinlets": 2,
                    "numoutlets": 1,
                    "outlettype": [ "float" ],
                    "patching_rect": [ 368.0, 135.0, 29.5, 22.0 ],
                    "text": "f"
                }
            },
            {
                "box": {
                    "id": "obj-5",
                    "maxclass": "newobj",
                    "numinlets": 2,
                    "numoutlets": 2,
                    "outlettype": [ "", "" ],
                    "patching_rect": [ 141.0, 690.0, 63.0, 22.0 ],
                    "text": "route read"
                }
            },
            {
                "box": {
                    "id": "obj-4",
                    "maxclass": "newobj",
                    "numinlets": 1,
                    "numoutlets": 0,
                    "patching_rect": [ 141.0, 780.0, 75.0, 22.0 ],
                    "text": "s #0_read"
                }
            },
            {
                "box": {
                    "id": "obj-1",
                    "maxclass": "newobj",
                    "numinlets": 1,
                    "numoutlets": 1,
                    "outlettype": [ "dump" ],
                    "patching_rect": [ 261.0, 165.0, 45.0, 22.0 ],
                    "text": "t dump"
                }
            },
            {
                "box": {
                    "id": "obj-40",
                    "maxclass": "newobj",
                    "numinlets": 2,
                    "numoutlets": 2,
                    "outlettype": [ "", "" ],
                    "patching_rect": [ 29.0, 135.0, 95.0, 22.0 ],
                    "text": "routepass dump"
                }
            },
            {
                "box": {
                    "id": "obj-39",
                    "maxclass": "newobj",
                    "numinlets": 1,
                    "numoutlets": 1,
                    "outlettype": [ "" ],
                    "patching_rect": [ 226.0, 413.0, 85.0, 22.0 ],
                    "text": "prepend insert"
                }
            },
            {
                "box": {
                    "id": "obj-38",
                    "maxclass": "message",
                    "numinlets": 2,
                    "numoutlets": 1,
                    "outlettype": [ "" ],
                    "patching_rect": [ 251.0, 375.0, 35.0, 22.0 ],
                    "text": "clear"
                }
            },
            {
                "box": {
                    "id": "obj-35",
                    "maxclass": "newobj",
                    "numinlets": 2,
                    "numoutlets": 2,
                    "outlettype": [ "bang", "" ],
                    "patching_rect": [ 251.0, 345.0, 34.0, 22.0 ],
                    "text": "sel 0"
                }
            },
            {
                "box": {
                    "id": "obj-34",
                    "maxclass": "newobj",
                    "numinlets": 2,
                    "numoutlets": 2,
                    "outlettype": [ "", "" ],
                    "patching_rect": [ 226.0, 300.0, 69.0, 22.0 ],
                    "text": "route dump"
                }
            },
            {
                "box": {
                    "id": "obj-31",
                    "maxclass": "newobj",
                    "numinlets": 1,
                    "numoutlets": 3,
                    "outlettype": [ "", "", "" ],
                    "patching_rect": [ 211.0, 90.0, 51.0, 22.0 ],
                    "text": "unjoin 2"
                }
            },
            {
                "box": {
                    "id": "obj-30",
                    "maxclass": "newobj",
                    "numinlets": 1,
                    "numoutlets": 2,
                    "outlettype": [ "", "" ],
                    "patching_rect": [ 211.0, 45.0, 114.0, 22.0 ],
                    "text": "patcherargs sobel 1"
                }
            },
            {
                "box": {
                    "comment": "(float) width amount",
                    "cool": 1,
                    "id": "obj-24",
                    "index": 3,
                    "maxclass": "inlet",
                    "numinlets": 0,
                    "numoutlets": 1,
                    "outlettype": [ "" ],
                    "patching_rect": [ 367.0, 45.0, 30.0, 30.0 ]
                }
            },
            {
                "box": {
                    "id": "obj-23",
                    "maxclass": "message",
                    "numinlets": 2,
                    "numoutlets": 1,
                    "outlettype": [ "" ],
                    "patching_rect": [ 189.0, 165.0, 63.0, 22.0 ],
                    "text": "symbol $1"
                }
            },
            {
                "box": {
                    "id": "obj-17",
                    "maxclass": "newobj",
                    "numinlets": 2,
                    "numoutlets": 2,
                    "outlettype": [ "", "" ],
                    "patching_rect": [ 156.0, 135.0, 52.0, 22.0 ],
                    "text": "route int"
                }
            },
            {
                "box": {
                    "comment": "(dump) fill umenu with blendmodes",
                    "id": "obj-16",
                    "index": 2,
                    "maxclass": "outlet",
                    "numinlets": 1,
                    "numoutlets": 0,
                    "patching_rect": [ 156.0, 405.0, 30.0, 30.0 ]
                }
            },
            {
                "box": {
                    "id": "obj-19",
                    "linecount": 11,
                    "maxclass": "comment",
                    "numinlets": 1,
                    "numoutlets": 0,
                    "patching_rect": [ 480.0, 210.0, 255.0, 154.0 ],
                    "text": "arguments/params:\n<int/symbol> filter mode (default = sobel)\n<float> width (default=0.5)\n\nVarious convolution filter modes for a texture inputs. Use an index to select blendmode or dump to fill a umenu.\n\nTimo Hoogland (c) 2022\nwww.timohoogland.com\nMIT License"
                }
            },
            {
                "box": {
                    "id": "obj-26",
                    "maxclass": "newobj",
                    "numinlets": 5,
                    "numoutlets": 5,
                    "outlettype": [ "", "", "", "", "" ],
                    "patching_rect": [ 219.0, 495.0, 137.0, 22.0 ],
                    "text": "route int float bypass list"
                }
            },
            {
                "box": {
                    "id": "obj-27",
                    "maxclass": "newobj",
                    "numinlets": 2,
                    "numoutlets": 2,
                    "outlettype": [ "", "" ],
                    "patching_rect": [ 105.0, 465.0, 133.0, 22.0 ],
                    "text": "routepass jit_gl_texture"
                }
            },
            {
                "box": {
                    "filename": "none",
                    "fontname": "Arial",
                    "fontsize": 11.934731,
                    "id": "obj-20",
                    "maxclass": "newobj",
                    "numinlets": 2,
                    "numoutlets": 2,
                    "outlettype": [ "jit_gl_texture", "" ],
                    "patching_rect": [ 105.0, 645.0, 55.0, 22.0 ],
                    "text": "jit.gl.slab",
                    "textfile": {
                        "text": "<jittershader name=\"default\">\n\t<description>Default Slab </description>\n\t<param name=\"scale\" type=\"float\" default=\"1.0\" />\n\t<param name=\"tex0\" type=\"int\" default=\"0\" />\n\t<param name=\"modelViewProjectionMatrix\" type=\"mat4\" state=\"MODELVIEW_PROJECTION_MATRIX\" />\n\t<param name=\"textureMatrix0\" type=\"mat4\" state=\"TEXTURE0_MATRIX\" />\n\t<param name=\"position\" type=\"vec3\" state=\"POSITION\" />\n\t<param name=\"texcoord\" type=\"vec2\" state=\"TEXCOORD\" />\n\t<param name=\"color\" type=\"vec4\" state=\"COLOR0\" />\n\t<language name=\"glsl\" version=\"1.5\">\n\t\t<bind param=\"scale\" program=\"fp\" />\n\t\t<bind param=\"tex0\" program=\"fp\" />\n\t\t<bind param=\"modelViewProjectionMatrix\" program=\"vp\" />\n\t\t<bind param=\"textureMatrix0\" program=\"vp\" />\n\t\t<bind param=\"position\" program=\"vp\" />\n\t\t<bind param=\"texcoord\" program=\"vp\" />\n\t\t<bind param=\"color\" program=\"vp\" />\n\t\t<program name=\"vp\" type=\"vertex\"  >\n\t\t<![CDATA[\n\t\t\t#version 330 core\n\t\t\t\n\t\t\tin vec3 position;\n\t\t\tin vec2 texcoord;\n\t\t\tout jit_PerVertex {\n\t\t\t\tvec2 texcoord;\n\t\t\t\tvec4 color;\n\t\t\t} jit_out;\n\t\t\tuniform mat4 modelViewProjectionMatrix;\n\t\t\tuniform mat4 textureMatrix0;\n\t\t\tuniform vec4 color;\n\t\t\t\n\t\t\tvoid main(void) {\n\t\t\t\tgl_Position = modelViewProjectionMatrix*vec4(position, 1.);\n\t\t\t\tjit_out.texcoord = vec2(textureMatrix0*vec4(texcoord, 0., 1.));\n\t\t\t\tjit_out.color = color;\n\t\t\t}\n\t\t]]>\n\t\t</program>\n\t\t\n\t\t<program name=\"fp\" type=\"fragment\"  >\n\t\t<![CDATA[\n\t\t\t#version 330 core\n\t\t\t\n\t\t\tin jit_PerVertex {\n\t\t\t\tvec2 texcoord;\n\t\t\t\tvec4 color;\n\t\t\t} jit_in;\n\t\t\tlayout (location = 0) out vec4 outColor;\n\t\t\t\n\t\t\tuniform samplerJit0 tex0;\n\t\t\tuniform float scale;\n\t\t\tvoid main(void) {\n\t\t\t\toutColor = texture(tex0, jit_in.texcoord) * jit_in.color * scale;\n\t\t\t}\n\t\t]]>\n\t\t</program>\n\t</language>\n</jittershader>\n",
                        "filename": "none",
                        "flags": 0,
                        "embed": 1,
                        "autowatch": 1
                    }
                }
            },
            {
                "box": {
                    "comment": "(texture) processed output",
                    "id": "obj-14",
                    "index": 1,
                    "maxclass": "outlet",
                    "numinlets": 1,
                    "numoutlets": 0,
                    "patching_rect": [ 64.0, 720.0, 30.0, 30.0 ]
                }
            },
            {
                "box": {
                    "id": "obj-13",
                    "maxclass": "newobj",
                    "numinlets": 1,
                    "numoutlets": 1,
                    "outlettype": [ "" ],
                    "patching_rect": [ 368.0, 300.0, 20.0, 22.0 ],
                    "text": "t l"
                }
            },
            {
                "box": {
                    "comment": "(int/symbol) filter mode",
                    "cool": 1,
                    "id": "obj-6",
                    "index": 2,
                    "maxclass": "inlet",
                    "numinlets": 0,
                    "numoutlets": 1,
                    "outlettype": [ "" ],
                    "patching_rect": [ 156.0, 45.0, 30.0, 30.0 ]
                }
            },
            {
                "box": {
                    "comment": "(texture) input",
                    "id": "obj-107",
                    "index": 1,
                    "maxclass": "inlet",
                    "numinlets": 0,
                    "numoutlets": 1,
                    "outlettype": [ "jit_gl_texture" ],
                    "patching_rect": [ 29.0, 45.0, 30.0, 30.0 ]
                }
            },
            {
                "box": {
                    "fontname": "Arial",
                    "fontsize": 11.934731,
                    "id": "obj-7",
                    "maxclass": "newobj",
                    "numinlets": 1,
                    "numoutlets": 1,
                    "outlettype": [ "" ],
                    "patching_rect": [ 191.0, 255.0, 119.0, 22.0 ],
                    "text": "sprintf read cf.%s.jxs"
                }
            },
            {
                "box": {
                    "allowdrag": 0,
                    "fontsize": 11.934731,
                    "id": "obj-28",
                    "items": [ "blur", ",", "dilate", ",", "edgedetect", ",", "emboss", ",", "erode", ",", "laplace", ",", "radialblur", ",", "sharpen", ",", "sobel" ],
                    "maxclass": "umenu",
                    "numinlets": 1,
                    "numoutlets": 3,
                    "outlettype": [ "int", "", "" ],
                    "parameter_enable": 0,
                    "patching_rect": [ 156.0, 210.0, 89.0, 22.0 ]
                }
            },
            {
                "box": {
                    "fontname": "Arial",
                    "fontsize": 11.934731,
                    "id": "obj-37",
                    "maxclass": "newobj",
                    "numinlets": 1,
                    "numoutlets": 1,
                    "outlettype": [ "" ],
                    "patching_rect": [ 368.0, 255.0, 89.0, 22.0 ],
                    "text": "prepend param"
                }
            },
            {
                "box": {
                    "fontname": "Arial",
                    "fontsize": 11.934731,
                    "id": "obj-41",
                    "maxclass": "message",
                    "numinlets": 2,
                    "numoutlets": 1,
                    "outlettype": [ "" ],
                    "patching_rect": [ 368.0, 225.0, 53.0, 22.0 ],
                    "text": "width $1"
                }
            }
        ],
        "lines": [
            {
                "patchline": {
                    "destination": [ "obj-28", 0 ],
                    "source": [ "obj-1", 0 ]
                }
            },
            {
                "patchline": {
                    "destination": [ "obj-8", 0 ],
                    "source": [ "obj-10", 0 ]
                }
            },
            {
                "patchline": {
                    "destination": [ "obj-40", 0 ],
                    "source": [ "obj-107", 0 ]
                }
            },
            {
                "patchline": {
                    "destination": [ "obj-16", 0 ],
                    "source": [ "obj-11", 0 ]
                }
            },
            {
                "patchline": {
                    "destination": [ "obj-20", 0 ],
                    "midpoints": [ 377.5, 631.90625, 114.5, 631.90625 ],
                    "source": [ "obj-13", 0 ]
                }
            },
            {
                "patchline": {
                    "destination": [ "obj-23", 0 ],
                    "source": [ "obj-17", 1 ]
                }
            },
            {
                "patchline": {
                    "destination": [ "obj-28", 0 ],
                    "source": [ "obj-17", 0 ]
                }
            },
            {
                "patchline": {
                    "destination": [ "obj-14", 0 ],
                    "source": [ "obj-2", 0 ]
                }
            },
            {
                "patchline": {
                    "destination": [ "obj-20", 0 ],
                    "source": [ "obj-2", 1 ]
                }
            },
            {
                "patchline": {
                    "destination": [ "obj-14", 0 ],
                    "source": [ "obj-20", 0 ]
                }
            },
            {
                "patchline": {
                    "destination": [ "obj-5", 0 ],
                    "source": [ "obj-20", 1 ]
                }
            },
            {
                "patchline": {
                    "destination": [ "obj-4", 0 ],
                    "source": [ "obj-22", 0 ]
                }
            },
            {
                "patchline": {
                    "destination": [ "obj-28", 0 ],
                    "source": [ "obj-23", 0 ]
                }
            },
            {
                "patchline": {
                    "destination": [ "obj-8", 0 ],
                    "source": [ "obj-24", 0 ]
                }
            },
            {
                "patchline": {
                    "destination": [ "obj-2", 0 ],
                    "source": [ "obj-26", 1 ]
                }
            },
            {
                "patchline": {
                    "destination": [ "obj-2", 0 ],
                    "source": [ "obj-26", 0 ]
                }
            },
            {
                "patchline": {
                    "destination": [ "obj-3", 0 ],
                    "source": [ "obj-26", 2 ]
                }
            },
            {
                "patchline": {
                    "destination": [ "obj-31", 0 ],
                    "midpoints": [ 317.0, 542.0, 463.484375, 542.0, 463.484375, 80.0, 220.5, 80.0 ],
                    "source": [ "obj-26", 3 ]
                }
            },
            {
                "patchline": {
                    "destination": [ "obj-9", 0 ],
                    "source": [ "obj-26", 4 ]
                }
            },
            {
                "patchline": {
                    "destination": [ "obj-2", 1 ],
                    "source": [ "obj-27", 0 ]
                }
            },
            {
                "patchline": {
                    "destination": [ "obj-26", 0 ],
                    "source": [ "obj-27", 1 ]
                }
            },
            {
                "patchline": {
                    "destination": [ "obj-11", 0 ],
                    "source": [ "obj-28", 0 ]
                }
            },
            {
                "patchline": {
                    "destination": [ "obj-34", 0 ],
                    "source": [ "obj-28", 2 ]
                }
            },
            {
                "patchline": {
                    "destination": [ "obj-7", 0 ],
                    "source": [ "obj-28", 1 ]
                }
            },
            {
                "patchline": {
                    "destination": [ "obj-2", 0 ],
                    "source": [ "obj-3", 0 ]
                }
            },
            {
                "patchline": {
                    "destination": [ "obj-31", 0 ],
                    "source": [ "obj-30", 0 ]
                }
            },
            {
                "patchline": {
                    "destination": [ "obj-1", 0 ],
                    "order": 0,
                    "source": [ "obj-31", 0 ]
                }
            },
            {
                "patchline": {
                    "destination": [ "obj-17", 0 ],
                    "order": 1,
                    "source": [ "obj-31", 0 ]
                }
            },
            {
                "patchline": {
                    "destination": [ "obj-8", 0 ],
                    "source": [ "obj-31", 1 ]
                }
            },
            {
                "patchline": {
                    "destination": [ "obj-22", 0 ],
                    "source": [ "obj-33", 0 ]
                }
            },
            {
                "patchline": {
                    "destination": [ "obj-35", 0 ],
                    "order": 0,
                    "source": [ "obj-34", 0 ]
                }
            },
            {
                "patchline": {
                    "destination": [ "obj-39", 0 ],
                    "order": 1,
                    "source": [ "obj-34", 0 ]
                }
            },
            {
                "patchline": {
                    "destination": [ "obj-38", 0 ],
                    "source": [ "obj-35", 0 ]
                }
            },
            {
                "patchline": {
                    "destination": [ "obj-13", 0 ],
                    "source": [ "obj-37", 0 ]
                }
            },
            {
                "patchline": {
                    "destination": [ "obj-16", 0 ],
                    "source": [ "obj-38", 0 ]
                }
            },
            {
                "patchline": {
                    "destination": [ "obj-16", 0 ],
                    "source": [ "obj-39", 0 ]
                }
            },
            {
                "patchline": {
                    "destination": [ "obj-27", 0 ],
                    "source": [ "obj-40", 1 ]
                }
            },
            {
                "patchline": {
                    "destination": [ "obj-28", 0 ],
                    "source": [ "obj-40", 0 ]
                }
            },
            {
                "patchline": {
                    "destination": [ "obj-37", 0 ],
                    "source": [ "obj-41", 0 ]
                }
            },
            {
                "patchline": {
                    "destination": [ "obj-33", 0 ],
                    "source": [ "obj-5", 0 ]
                }
            },
            {
                "patchline": {
                    "destination": [ "obj-17", 0 ],
                    "source": [ "obj-6", 0 ]
                }
            },
            {
                "patchline": {
                    "destination": [ "obj-13", 0 ],
                    "source": [ "obj-7", 0 ]
                }
            },
            {
                "patchline": {
                    "destination": [ "obj-41", 0 ],
                    "source": [ "obj-8", 0 ]
                }
            },
            {
                "patchline": {
                    "destination": [ "obj-2", 0 ],
                    "source": [ "obj-9", 0 ]
                }
            }
        ],
        "toolbaradditions": [ "audiomute", "audiosolo", "packagemanager" ]
    }
}